<svg xmlns="http://www.w3.org/2000/svg" width="115.7" height="32" viewBox="537.8 139 115.7 32"><path d="M538.3 166.6c0 1.9 1.6 3.5 3.5 3.5h107.7c1.9 0 3.5-1.6 3.5-3.5v-23.1c0-1.9-1.6-3.5-3.5-3.5H541.9c-1.9 0-3.5 1.6-3.5 3.5v23.1z"/><path fill="none" stroke="#000" stroke-miterlimit="10" d="M538.3 166.6c0 1.9 1.6 3.5 3.5 3.5h107.7c1.9 0 3.5-1.6 3.5-3.5v-23.1c0-1.9-1.6-3.5-3.5-3.5H541.9c-1.9 0-3.5 1.6-3.5 3.5v23.1z"/><path fill="#FFF" d="M647.2 157.8c-.3-.4-.7-.8-1.3-1.1-.3-.1-.8-.3-1.6-.6-.3-.1-.6-.2-.8-.3-.2-.1-.5-.2-.7-.3-.3-.1-.6-.3-.8-.5-.3-.2-.4-.5-.4-1 0-.4.2-.8.5-1.1.4-.3.8-.4 1.3-.4.4 0 .8.1 1.1.2.3.1.6.4.8.7.2.2.3.5.4.9s.3.6.4.9h.4c.1 0 .1-.1.2-.1v-.3c0-.1 0-.3-.1-.4 0-.2 0-.3-.1-.5v-.3c0-.3 0-.5.1-.8 0-.3.1-.5.1-.6 0-.1-.1-.1-.2-.2s-.2-.1-.4-.1l-.3.3-.3.3c-.4-.3-.8-.5-1.2-.6s-.8-.1-1.2-.1c-.4 0-.8.1-1.2.2-.4.1-.7.3-1 .6s-.5.5-.6.9c-.1.3-.2.7-.2 1.1 0 .3 0 .6.1.9.1.3.2.6.4.9.2.2.4.4.6.5.2.2.5.3.8.5.1.1.3.2.6.2s.5.2.7.2c.3.1.5.2.7.2.2.1.4.1.5.2.3.1.5.3.7.4.1.1.3.2.4.4.2.2.3.5.3.9 0 .2 0 .4-.1.6-.1.2-.2.4-.5.6-.3.3-.8.5-1.6.5-.3 0-.7-.1-1.1-.2-.4-.2-.8-.4-1.1-.8-.1-.1-.2-.2-.2-.4-.1-.2-.2-.4-.2-.5-.1-.2-.2-.4-.2-.5-.1-.2-.1-.3-.2-.4h-.2c-.2 0-.3.1-.4.2v1.6c0 .2 0 .4-.1.7-.1.3-.1.4-.1.5 0 .1.1.2.2.2.1.1.2.1.4.1.2-.1.3-.2.4-.3s.2-.1.3-.1h.2s.1 0 .2.1c.3.1.6.3 1.1.4.4.1.8.2 1.3.2s.9-.1 1.3-.2.8-.3 1.1-.6.6-.6.8-1c.2-.4.3-.8.3-1.2.1-.7 0-1.2-.3-1.6zm-12.1 1.1c-.2.5-.5 1-.8 1.4-.3.4-.8.7-1.2.9-.5.2-1 .3-1.7.3-.2 0-.4 0-.6-.1s-.3-.2-.5-.4-.3-.6-.3-1.2V152.9c.1 0 .2 0 .3-.1h.4c.6 0 1.2.1 1.7.2.5.2.9.4 1.3.7.6.4 1 .9 1.2 1.5.2.6.4 1.3.4 2.1.1.6 0 1.1-.2 1.6zm2.3-2.9c-.1-.4-.3-.9-.5-1.3s-.5-.8-.8-1.1c-.3-.3-.7-.6-1.1-.8-.4-.2-.9-.4-1.4-.5-.5-.1-1.2-.2-1.8-.2H626.4c-.1.1-.1.2-.1.2V152.6c.4 0 .7 0 .9.1.2.1.4.2.5.3s.2.3.2.4c0 .2 0 .3.1.5 0 .1 0 .5.1 1v4.6c0 .5 0 .8-.1 1s0 .5 0 .5c-.1.2-.3.3-.5.4-.2.1-.6.1-1.1.2V161.9c0 .1 0 .2.1.2h5.5c.6 0 1.1 0 1.6-.1s.9-.2 1.3-.3.7-.3 1-.6c.3-.3.6-.6.9-1 .3-.4.5-.9.6-1.4.1-.5.2-1 .2-1.4 0-.4-.1-.8-.2-1.3zm-12.8-3.8H620v.2c0 .1 0 .2.1.3.1 0 .3.1.4.1.2 0 .3.1.5.1s.3.1.4.1c.1.1.2.1.2.2.2.3.3.6.3 1.1V159.5c-.1-.2-.3-.4-.6-.7-.2-.3-.4-.5-.6-.7l-5.2-5.7c-.1-.1-.2-.1-.3-.2h-2.8c0 .1-.1.2-.1.3v.1s0 .1.1.1c.2.1.4.1.6.2.2.1.4.2.5.3l.3.3.2.2c.2.3.3.6.3 1.1v5.7c0 .2-.1.4-.1.5l-.3.3s-.3.2-.4.2c-.1.1-.3.1-.5.1s-.3.1-.4.1v.5h4.3c0-.1 0-.1.1-.2v-.1c0-.1 0-.1-.1-.2-.2 0-.4-.1-.7-.1s-.5-.2-.7-.3c-.1-.1-.2-.2-.3-.4-.1-.1-.1-.4-.2-.7 0-.2 0-.4-.1-.6v-3.3l-.1-1.5 7 7.5c.1.1.2.2.3.2h.2c.1 0 .2-.1.2-.1v-.6-.7-.6V155.1c0-.4 0-.7.1-1 .1-.3.2-.5.4-.7.2-.2.4-.3.6-.4.2-.1.5-.1.7-.1v-.1-.1c.3-.3.3-.4.3-.5zm-14 9.6v-2.6c-.1-.1-.2-.1-.3-.1h-.1s-.1 0-.2.1c-.1.2-.2.5-.3.7-.1.2-.3.4-.5.6s-.3.4-.5.5c-.1.1-.3.2-.4.3-.1.1-.2.1-.5.1h-2.9c-.1 0-.3-.1-.4-.2s-.2-.2-.2-.3c-.1-.2-.1-.6-.1-1.2v-2.6h1.1c.2 0 .4.1.6.2.4.1.6.4.7.7.1.3.2.6.2 1.1h.5s.1 0 .1-.1v-.4-.6-.6-.4-1.3c0-.4 0-.7.1-.9-.1-.1-.1-.1-.3-.1-.1 0-.2 0-.3.1 0 .1-.1.2-.1.4s-.1.3-.1.4c-.1.2-.3.3-.4.4l-.6.3c-.1 0-.3.1-.5.1H604.3v-1.3-.8-.6-.4-.2-.3h2.5c.4 0 .7.1.9.3.1.1.3.2.4.3l.3.3c.1.1.2.3.4.4.1.2.3.4.4.7H609.5s.1 0 .1-.1l-.1-2.3c0-.1 0-.2-.1-.2h-.3-8.6s0 .1-.1.1v.1c0 .1 0 .2.1.3.3 0 .5.1.7.1.2 0 .4.1.5.2l.3.3c.1.1.1.4.1.6v5.8c0 .5-.1.8-.1 1s-.1.4-.2.5c-.1.1-.2.1-.5.2s-.6.1-1 .1v.2c0 .1 0 .1.1.2h9.5c.2 0 .3 0 .4-.1s.3.2.3 0zm-12.2-.1v-.1h-.6s-.4 0-.5-.1c-.3-.1-.5-.3-.5-.7-.1-.3-.1-.7-.1-1.2V155v-.4-.5-.5c0-.1 0-.2.1-.3.1-.2.3-.4.6-.4s.6-.1.9-.1c0-.1.1-.2.1-.3 0-.1 0-.1-.1-.2h-5c0 .1 0 .1-.1.1v.1c0 .1 0 .2.1.3.5 0 .9.1 1.2.2.3.1.4.3.4.7v6.8c0 .3 0 .5-.1.5-.1.2-.3.4-.5.5-.2.1-.6.1-1.1.2 0 .1-.1.2-.1.3v.2h5.3c.1-.1.1-.2.1-.3 0-.2 0-.2-.1-.2zm-10.6-6.4c-.1.2-.1.4-.3.6-.1.2-.2.3-.4.5s-.4.2-.6.3c-.2 0-.4.1-.8.1h-1.6v-3.6c0-.1 0-.2.1-.3s.3-.1.6-.1h.9c.3 0 .5 0 .7.1.2.1.4.1.5.2s.3.2.4.4c.1.2.2.4.3.5.1.2.1.4.1.7.2.2.1.4.1.6zm3.7 6.3h-.5c-.1 0-.2 0-.3-.1h-.2c-.1 0-.1-.1-.2-.1-.1-.1-.1-.1-.1-.2-.1-.3-.2-.6-.3-.8-.1-.3-.2-.5-.3-.8-.1-.4-.3-.7-.4-.9s-.3-.4-.5-.6c-.1-.1-.3-.3-.6-.4-.2-.1-.5-.2-.9-.3v-.1c1-.1 1.7-.4 2.2-.8.4-.4.6-1 .6-1.5 0-.6-.2-1.1-.5-1.5-.3-.4-.8-.7-1.4-.9-.2-.1-.5-.1-.8-.1h-6.6c0 .1 0 .1-.1.1v.4c.6 0 1 .1 1.3.3s.4.4.5.7c0 .1.1.4.1.8V160.9c0 .1-.1.3-.1.4s-.1.3-.2.4c0 0-.1.1-.2.1s-.2.1-.4.1c-.1 0-.3 0-.4.1h-.4v.5H586c0-.1 0-.1.1-.1v-.1c0-.1 0-.2-.1-.3-.3 0-.6-.1-.8-.1s-.4-.2-.5-.3c-.2-.2-.3-.6-.3-1.1v-2.7H585.3s.5 0 .7.1c.3.1.5.3.7.5.2.2.4.4.5.6l.3.6c.1.2.2.5.3.8.1.3.2.5.2.8s.1.5.2.8c0 .2.1.3.1.4.1.1.2.2.4.2h2.9v-.3c0-.6-.1-.7-.1-.7zm-12-10.4l-.2-3.1v-.2s0-.1-.1-.1h-11.4c0 .1-.1.1-.1.1v.1c0 .1 0 .2.1.3.3 0 .6.1.9.1.3 0 .5.1.6.2.2.2.3.4.5.6.1.2.2.4.2.6 0 .1 0 .4.1.7v9c-.1.5-.1 1-.2 1.3-.1.3-.2.5-.4.7-.2 0-.5.1-.9.1s-.7.1-1 .1c-.1.1-.1.2-.1.3 0 .1 0 .2.1.3h7.3c0-.1 0-.1.1-.1v-.1c0-.1 0-.2-.1-.3h-.4c-.2 0-.3 0-.5-.1s-.3 0-.5-.1h-.3c-.2-.1-.3-.2-.5-.4s-.3-.5-.4-.9v-.5-.7-.9-.8-1.1-.6-.3-.2c.2 0 .4-.1.6-.1.4 0 .8 0 1.1.1.3.1.5.1.6.2.3.2.5.4.6.7.2.2.2.5.3.7 0 .2.1.4.1.6 0 .2 0 .3.1.4h.2c.1 0 .2 0 .3-.1v-.7-.5-.6-.6-.5-.5-.7-.8-.8s-.1 0-.1-.1h-.4-.1c0 .1 0 .2-.1.4 0 .2 0 .3-.1.5 0 .2-.1.3-.1.5-.1.2-.1.3-.2.4-.1.1-.2.3-.4.4s-.3.2-.5.2c-.2.1-.4.1-.6.1h-1.4v-5.7c0-.1 0-.2.1-.3 0 0 .1-.1.3-.1h3.4c.3 0 .5.1.7.2.1.1.3.2.5.4.2.1.3.3.5.5s.4.5.6.8c.2.3.4.7.6 1.1h.4c.1-.1.2-.1.2-.1z"/><path fill="#FFF" d="M647.2 157.8c-.2-.5-.7-.8-1.2-1.1-.3-.1-.8-.3-1.6-.6-.3-.1-.6-.2-.8-.3-.2-.1-.5-.2-.7-.3-.3-.1-.5-.3-.8-.5-.3-.2-.4-.5-.4-.9s.2-.8.5-1 .8-.4 1.2-.4c.4 0 .8.1 1.1.2.3.1.6.3.8.6.2.2.3.5.4.8.1.3.3.6.4.9h.2c.1 0 .2 0 .2-.1.1 0 .1-.1.2-.1v-.3-.4c0-.2 0-.3-.1-.5v-.3c0-.3 0-.5.1-.8 0-.3.1-.5.1-.6 0-.1-.1-.1-.2-.2s-.2-.1-.4-.1l-.3.3-.3.3c-.4-.3-.8-.5-1.2-.6-.4-.1-.8-.1-1.2-.1-.4 0-.9.1-1.2.2s-.7.3-1 .6-.5.6-.6.9c-.1.3-.2.7-.2 1.1 0 .3 0 .6.1.9.1.3.2.6.5.9.2.2.4.4.6.5.2.2.5.3.8.5.2.1.3.2.6.2.2.1.5.2.7.2.3.1.5.2.7.2.2.1.4.1.5.2.3.1.5.3.6.4.1.1.3.2.4.4.2.2.3.5.3.9 0 .2 0 .4-.1.6-.1.2-.2.4-.4.6-.3.3-.8.5-1.6.5-.3 0-.7-.1-1.1-.2-.4-.2-.8-.4-1.1-.8-.1-.1-.2-.2-.2-.4-.1-.2-.2-.4-.2-.5-.1-.2-.2-.4-.2-.5-.1-.2-.1-.3-.2-.4h-.2c-.2 0-.4.1-.5.2v1.6c0 .2 0 .4-.1.7-.1.3-.1.4-.1.6 0 .1.1.2.3.2.1.1.2.1.4.1.2-.1.3-.2.4-.3.1-.1.2-.1.3-.1h.2c.1 0 .1 0 .2.1.3.1.6.3 1.1.4.4.1.8.2 1.3.2s.9-.1 1.3-.2.8-.3 1.1-.6c.3-.3.6-.6.8-1 .2-.4.3-.8.3-1.3-.1-.6-.2-1.1-.5-1.5.2.4.3.9.3 1.5 0 .4-.1.9-.3 1.2-.2.4-.4.7-.8.9-.3.3-.7.5-1.1.6-.4.1-.9.2-1.3.2s-.8-.1-1.2-.2c-.4-.1-.8-.3-1-.4 0 0-.1-.1-.2-.1h-.2c-.1 0-.2 0-.3.1-.1.1-.3.2-.4.3-.1 0-.2 0-.3-.1s-.2-.1-.2-.2 0-.3.1-.5c.1-.3.1-.5.1-.7v-.3-.5-.5-.3c.1-.1.2-.2.4-.2h.1c.1.1.1.2.2.4s.2.4.2.5l.3.6c.1.2.2.3.3.4.3.4.7.6 1.1.8.4.2.8.3 1.1.3.8 0 1.3-.2 1.6-.5.2-.2.4-.4.5-.6.1-.2.1-.4.1-.6 0-.4-.1-.7-.3-.9-.1-.2-.3-.3-.4-.4-.1-.1-.4-.2-.7-.4-.1-.1-.3-.1-.5-.2s-.5-.1-.7-.2c-.3-.1-.5-.2-.7-.2-.2-.1-.4-.2-.6-.2-.3-.2-.6-.3-.8-.5-.2-.2-.4-.3-.6-.5-.2-.3-.4-.6-.4-.9-.1-.3-.1-.6-.1-.9 0-.4.1-.8.2-1.1.1-.3.3-.6.6-.9.3-.2.6-.4 1-.6.4-.1.8-.2 1.2-.2.3 0 .7 0 1.1.1.4.1.8.3 1.2.6l.3-.3.3-.3c.1 0 .2 0 .3.1l.1.1c0 .1 0 .3-.1.6 0 .3-.1.5-.1.8v.3c0 .1 0 .3.1.5v.7c-.1 0-.1.1-.2.1h-.2-.2c-.1-.2-.3-.5-.4-.9-.1-.3-.3-.6-.4-.9-.2-.3-.5-.5-.9-.7-.3-.1-.7-.2-1.1-.2-.5 0-.9.1-1.3.4-.4.3-.6.7-.5 1.1 0 .4.1.8.4 1 .3.2.5.4.8.5.2.1.4.2.7.3s.5.2.8.3c.8.3 1.3.5 1.6.6.7.5 1.1.8 1.4 1.2zm-12.1 1.1c-.2.5-.5.9-.9 1.3-.3.4-.7.7-1.2.9-.5.2-1 .3-1.6.3-.2 0-.4 0-.5-.1-.1-.1-.3-.2-.4-.3-.2-.2-.3-.6-.3-1.1v-7c.1 0 .2 0 .3-.1h.4c.6 0 1.2.1 1.6.2.5.2.9.4 1.3.7.6.4 1 .9 1.2 1.5.2.6.4 1.3.4 2.1-.1.6-.1 1.1-.3 1.6.2-.5.3-1.1.3-1.7 0-.8-.1-1.5-.4-2.1-.2-.6-.7-1.1-1.2-1.5-.4-.3-.8-.5-1.3-.7-.5-.2-1-.2-1.7-.2h-.4c-.1 0-.2 0-.3.1V159.9c0 .6.1 1 .3 1.2.1.2.3.3.5.4.2.1.4.1.6.1.6 0 1.2-.1 1.7-.3.5-.2.9-.5 1.2-.9.3-.5.6-.9.7-1.5zm2.3-2.9c-.1-.5-.2-.9-.4-1.3s-.5-.8-.8-1.1c-.3-.3-.7-.6-1.1-.8-.4-.2-.9-.4-1.4-.5-.5-.1-1.2-.2-1.8-.2H626.5c-.1.1-.1.2-.1.3v.2c.4 0 .7 0 .9.1.2.1.4.2.5.3.1.1.2.2.2.4s0 .3.1.4 0 .5.1 1v4.6c0 .5 0 .8-.1 1-.1.2-.1.4-.1.4-.1.2-.3.3-.5.4-.2.1-.6.1-1.1.2 0 .1 0 .1-.1.2v.1c0 .1 0 .2.1.3h5.6c.6 0 1.1 0 1.6-.1s.9-.2 1.3-.3c.4-.1.7-.4 1-.6.3-.3.6-.6.9-1 .3-.4.5-.9.6-1.4.1-.5.2-1 .2-1.5 0-.2 0-.6-.2-1.1.1.4.1.9.1 1.3 0 .5-.1.9-.2 1.4-.1.5-.3.9-.6 1.3s-.6.7-.9.9c-.3.3-.6.5-1 .6-.4.1-.8.2-1.3.3-.5.1-1 .1-1.6.1h-5.5c0-.1-.1-.1-.1-.2v-.1-.2c.5 0 .9-.1 1.1-.2.2-.1.4-.2.5-.4 0-.1.1-.2.1-.4.1-.2.1-.6.1-1v-2.3-2.3c0-.5 0-.8-.1-1 0-.1 0-.3-.1-.5 0-.2-.1-.3-.2-.4-.1-.1-.3-.2-.5-.3-.2-.1-.5-.1-.9-.1v-.2-.1c0-.1 0-.1.1-.2H631.7c.7 0 1.3.1 1.8.2s1 .3 1.4.5c.4.2.8.5 1.1.8.3.3.6.7.8 1.1s.5 1 .6 1.4zm-12.8-3.8H620v.2c0 .1 0 .2.1.3.1 0 .3.1.4.1.2 0 .3.1.5.1s.3.1.4.1c.1.1.2.1.2.2.2.3.3.6.3 1V159.4c-.1-.2-.3-.4-.6-.7-.2-.3-.4-.5-.6-.7l-5.2-5.7c-.1-.1-.2-.2-.3-.2h-2.8c0 .1-.1.2-.1.3v.1c0 .1 0 .1.1.2.2.1.4.1.6.2.2.1.4.2.5.3l.3.3.2.2c.2.3.3.6.3 1.1v5.7c0 .2-.1.4-.1.5l-.3.3s-.3.1-.4.2c-.1.1-.3.1-.4.1-.2 0-.3.1-.4.1 0 .1 0 .1-.1.2V162.2h4.4c0-.1 0-.1.1-.2v-.1c0-.1 0-.2-.1-.2-.2 0-.4-.1-.7-.1-.2-.1-.5-.2-.6-.3-.1-.1-.2-.2-.3-.4-.1-.1-.1-.4-.2-.7 0-.2 0-.4-.1-.6v-3.3l-.1-1.4 6.9 7.5c.1.1.2.2.3.2h.2c.1 0 .2-.1.2-.1v-.6-.7-.6V155.2c0-.4 0-.7.1-1 .1-.3.2-.5.4-.7.2-.2.4-.3.6-.4.2-.1.5-.1.7-.1 0 0 0-.1.1-.2v-.1c.2-.3.2-.4.1-.5v.4c-.3 0-.5.1-.7.1-.2.1-.4.2-.6.4-.2.2-.3.4-.4.7-.1.3-.2.6-.2 1V162.2c-.1 0-.1.1-.2.1h-.2s-.1 0-.2-.1l-7.1-7.6.1 1.7v3.3c0 .2 0 .4.1.6 0 .3.1.5.2.7.1.2.2.3.3.4.2.2.4.3.7.3.3.1.5.1.7.1 0 .1.1.1.1.2v.1s0 .1-.1.1h-4.3v-.2-.1-.2c.1 0 .3 0 .4-.1.2 0 .3-.1.5-.1.2-.1.3-.1.4-.2l.3-.3c.1-.1.1-.3.1-.5v-4.3-.7-.7c0-.5-.1-.8-.4-1.1l-.2-.2-.3-.3c-.1-.1-.3-.2-.5-.3-.2-.1-.4-.2-.6-.2v-.1-.1c0-.1 0-.2.1-.2H615.4c.1.1.2.1.3.2l5.2 5.7c.2.2.4.5.6.7.2.3.4.5.5.7l.1.1v-4.2-.7-.4c0-.4-.1-.8-.3-1.1-.1-.1-.1-.1-.3-.2-.1-.1-.3-.1-.4-.1-.2 0-.3-.1-.5-.1s-.3-.1-.4-.1c0-.1-.1-.2-.1-.3v-.2h4.5zm-14 9.6v-2.7c-.1-.1-.2-.1-.3-.1h-.1s-.1 0-.2.1c-.1.2-.2.4-.3.7-.1.2-.3.4-.4.6-.2.2-.3.4-.5.5-.1.1-.3.2-.3.3-.1.1-.2.1-.4.1h-2.9c-.1 0-.3-.1-.4-.2-.1-.1-.2-.2-.2-.3-.1-.2-.1-.6-.1-1.1v-2.6h1.1c.2 0 .4.1.5.2.4.1.6.4.7.6.1.3.2.6.2 1.1h.5s.1 0 .1-.1v-.4-.6-.6-.4-1.3c0-.4 0-.6.1-.9-.1-.1-.2-.1-.3-.1-.1 0-.3 0-.3.1s-.1.2-.1.4-.1.3-.1.4c-.1.2-.2.3-.4.4l-.6.3c-.1 0-.3.1-.5.1H604.5v-1.2-.8-.6-.4-.2-.3h2.5c.4 0 .7.1.8.3.1.1.3.2.4.3l.3.3c.1.1.2.3.4.4.1.2.3.4.4.7h.4s.1 0 .1-.1l-.1-2.3c0-.1 0-.2-.1-.2h-.3-8.7l-.1.1v.1c0 .1 0 .2.1.3.3 0 .5.1.7.1.2 0 .4.1.5.2l.3.3c.1.1.1.3.1.6v5.8c0 .5-.1.8-.1 1s-.1.4-.2.5c0 .1-.2.1-.5.2s-.6.1-1 .1V161.8c0 .1 0 .2.1.2h9.5c.2 0 .3 0 .4-.1.2.2.3.1.2-.1-.1.1-.1.2-.1.2h-9.8c0-.1-.1-.1-.1-.2v-.1-.1c.4 0 .7-.1 1-.1.3-.1.4-.1.5-.2.1-.1.2-.3.2-.5s.1-.6.1-1v-.7-.8-1.3-1.5-.9-.6c0-.3 0-.5-.1-.7-.1-.2-.2-.3-.3-.4-.1-.1-.3-.1-.5-.2-.2 0-.5-.1-.7-.1 0-.1-.1-.2-.1-.2v-.1c0-.1 0-.1.1-.1h8.7v.1l.1 2.3c-.1 0-.1 0-.1.1H609.2c-.2-.3-.3-.5-.4-.7-.1-.2-.3-.3-.4-.5l-.3-.3c-.1-.1-.2-.2-.4-.3-.2-.1-.5-.2-.9-.3h-2.4-.1s-.1 0-.1.1V156.3h1c.2 0 .4-.1.5-.1.2-.1.4-.1.6-.3.2-.1.3-.3.5-.4 0-.1.1-.2.1-.4s.1-.3.1-.4c.1 0 .2-.1.3-.1.1 0 .2 0 .2.1 0 .2 0 .5-.1.9v3.4c-.1 0-.1 0-.1.1h-.4c-.1-.4-.1-.8-.2-1.1-.1-.3-.4-.5-.7-.7-.2-.1-.4-.1-.6-.2h-1.1v2.6c0 .6 0 1 .1 1.2 0 .1.1.2.2.3.1.1.2.2.4.2h2.9c.2 0 .4-.1.5-.1.1-.1.2-.2.4-.3l.5-.5s.3-.4.5-.6c.1-.2.3-.5.3-.7H610.4c.1 0 .2 0 .3.1l-.1 2.5zm-12.2-.1v-.1h-.6c-.2 0-.4 0-.5-.1-.3-.1-.5-.3-.5-.6-.1-.3-.1-.7-.1-1.2V155v-.4-.5-.4c0-.1 0-.2.1-.3.1-.2.3-.3.5-.4.3 0 .6-.1.9-.1 0-.1.1-.2.1-.3 0-.1 0-.2-.1-.3h-5.1c0 .1 0 .1-.1.1v.1c0 .1 0 .2.1.3.5 0 .9.1 1.2.2.2.1.4.3.4.6v6.8c0 .3 0 .5-.1.5-.1.2-.3.4-.5.4-.2.1-.6.1-1.1.2 0 .1-.1.2-.1.3v.1s0 .1.1.1h5.3c.1-.1.1-.2.1-.3.1 0 .1 0 0 0v.1c0 .1 0 .1-.1.2H593v-.1-.1c0-.1 0-.2.1-.3.5-.1.8-.1 1.1-.2.2-.1.4-.2.5-.5 0-.1.1-.2.1-.5v-1-1V155v-.7-.8c0-.4-.2-.6-.5-.7-.3-.1-.7-.2-1.2-.2 0-.1-.1-.2-.1-.3v-.1s0-.1.1-.1h5c.1.1.1.2.1.2 0 .1 0 .1-.1.3-.3 0-.6.1-.9.1-.3 0-.5.2-.6.4 0 .1-.1.2-.1.3v6c0 .4 0 .8.1 1.2.1.4.2.6.6.7.1 0 .2.1.5.1.4.2.5.2.7.3v-.1.1c0-.1 0 0 0 0zm-10.6-6.4l-.3.6c-.1.2-.2.3-.4.4s-.3.2-.5.3c-.2 0-.4.1-.8.1h-1.6v-3.6c0-.1 0-.2.1-.2 0 0 .3-.1.6-.1h.9c.3 0 .5 0 .7.1.2.1.4.1.5.2.1.1.3.2.4.4.1.2.2.3.3.5.1.2.1.4.1.6v.7c.1-.2.1-.4.1-.6 0-.2 0-.5-.1-.7l-.3-.6c-.1-.2-.3-.3-.4-.4-.2-.1-.3-.2-.5-.2-.2-.1-.4-.1-.7-.1h-.9c-.3 0-.5 0-.6.1-.1.1-.1.2-.1.3v3.6h1.6c.3 0 .6 0 .8-.1.2-.1.4-.1.6-.3.2-.1.3-.3.4-.5 0-.1.1-.3.1-.5zm3.7 6.3s-.1-.1-.2-.1h-.3c-.1 0-.2 0-.3-.1h-.2c-.1 0-.1-.1-.2-.1-.1-.1-.1-.1-.1-.2l-.3-.9c-.1-.3-.2-.5-.3-.8-.1-.4-.3-.7-.4-.9-.1-.2-.3-.5-.5-.6-.2-.2-.3-.3-.6-.4-.2-.1-.6-.2-.9-.3v-.1c1-.1 1.7-.4 2.2-.8.4-.4.6-1 .6-1.6 0-.6-.2-1.1-.5-1.5-.3-.5-.8-.8-1.4-.9-.2-.1-.5-.1-.9-.1h-6.6v.5c.6 0 1 .1 1.2.3.2.1.4.4.4.7 0 .1.1.4.1.8v5.9c0 .1-.1.3-.1.4 0 .1-.1.3-.2.3 0 0-.1.1-.2.1s-.2.1-.4.1c-.1 0-.3 0-.4.1h-.4c0 .1 0 .1-.1.1v.2s0 .1.1.2H585.8c0-.1 0-.1.1-.1v-.1c0-.1 0-.2-.1-.3-.3 0-.6-.1-.8-.1-.2-.1-.3-.2-.5-.3-.2-.2-.2-.5-.2-1v-2.7H585.2c.2 0 .5 0 .6.1.3.1.5.2.7.5.2.2.4.4.5.6.1.2.2.3.3.6.1.2.2.5.3.7s.1.5.2.8c.1.3.1.5.1.8 0 .2.1.3.1.4.1.1.2.2.4.2h2.9v-.3c.3 0 .3-.1.2-.1v.4h-2.9c-.2 0-.3 0-.3-.1-.1-.1-.1-.2-.1-.4s-.1-.5-.2-.8c-.1-.3-.1-.5-.2-.8-.1-.3-.2-.5-.3-.8l-.3-.6c-.1-.2-.3-.4-.5-.6-.2-.2-.5-.4-.7-.5-.2-.1-.4-.1-.7-.1h-1v2.8c0 .5.1.9.3 1.1.1.2.3.3.5.4.2.1.5.1.8.1.1.1.1.2.1.3v.1l-.1.1h-5.2v-.2-.1-.1-.1h.4c.1 0 .3 0 .4-.1.1 0 .3-.1.4-.1s.2-.1.2-.1c.1-.1.2-.2.2-.4 0-.1.1-.3.1-.4v-.3-.4-.4-3.5-1.5c0-.4-.1-.6-.1-.8-.1-.3-.2-.6-.5-.7-.3-.2-.7-.3-1.3-.3v-.3-.1s0-.1.1-.1h6.6c.3 0 .6.1.8.1.6.2 1.1.5 1.4.9.3.4.4.9.4 1.5s-.2 1.1-.6 1.5c-.4.4-1.1.7-2.1.8v.2c.4.1.7.2.9.3.2.1.4.3.6.4.2.2.3.4.5.6.1.2.3.5.4.9.1.3.2.5.3.8.1.3.2.5.3.8 0 .1.1.1.1.2l.2.2h.5s.2 0 .3.1c.2.1.3.1.3.1zm-12-10.4l-.1-3.1v-.2s0-.1-.1-.1h-11.4c0 .1 0 .1-.1.1v.2c0 .1 0 .2.1.3.3 0 .6.1.9.1.3 0 .5.1.6.1.2.2.3.4.4.5.1.2.2.4.2.6 0 .1 0 .4.1.7v9c-.1.5-.1 1-.2 1.2-.1.3-.2.5-.3.7-.2 0-.5.1-.9.1-.4.1-.7.1-1 .1-.1.1-.1.2-.1.3 0 .1 0 .2.1.3h7.2c0-.1 0-.1.1-.2v-.1c0-.1 0-.2-.1-.3h-.3c-.2 0-.3 0-.5-.1h-.8c-.2-.1-.3-.2-.5-.4s-.3-.5-.4-.9v-.5-.7-.8-.8-1-.6-.3-.2c.2 0 .4-.1.6-.1.4 0 .8 0 1.1.1.3.1.5.1.6.2.3.2.5.4.6.7.1.2.2.5.3.7 0 .2.1.4.1.6s0 .3.1.4h.2c.2 0 .3 0 .3-.1v-.7-.5-.6-.6-.5-.5-.7-.8-.8l-.1-.1h-.4-.1v.4c0 .2 0 .3-.1.5 0 .2-.1.3-.1.5-.1.2-.1.3-.2.4-.1.1-.2.3-.4.3-.2.1-.3.2-.5.2-.2.1-.4.1-.6.1h-1.4v-5.7-.2H576.1c.3 0 .5.1.7.2.1.1.3.2.5.4.2.1.3.3.5.5s.4.5.6.8c.2.3.4.7.6 1.1h.4c.1-.1.1-.2.1-.2h-.1-.1-.1-.1c-.2-.4-.4-.8-.6-1.1-.2-.3-.4-.6-.6-.8l-.5-.5c-.2-.1-.3-.3-.5-.4-.2-.1-.4-.2-.7-.2h-3.4c-.2 0-.3 0-.4.1 0 .1-.1.2-.1.3v5.8h1.4c.2 0 .4-.1.6-.1.2-.1.4-.1.5-.2.2-.1.3-.2.4-.4.1-.1.2-.3.2-.4.1-.2.1-.3.1-.5s0-.3.1-.5v-.4h.4s.1 0 .1.1v5.7s-.1.1-.3.1h-.1-.1c0-.1 0-.2-.1-.4 0-.2-.1-.4-.1-.6 0-.2-.1-.5-.3-.8-.2-.3-.4-.5-.6-.7-.1-.1-.3-.2-.6-.3-.3-.1-.7-.1-1.1-.1-.2 0-.4 0-.6.1v5.1c.1.4.2.7.4.9.2.2.3.4.5.4h.3c.1 0 .3 0 .5.1.2 0 .3 0 .5.1h.4c0 .1.1.2.1.3v.2h-7.3c-.1-.1-.1-.2-.1-.2 0-.1 0-.2.1-.2.3 0 .7-.1 1-.1.4-.1.7-.1.9-.1.2-.2.3-.5.4-.7.1-.3.2-.7.2-1.3v-7.7-1.3c0-.3 0-.6-.1-.7 0-.2-.1-.5-.2-.6-.1-.2-.3-.4-.5-.6-.1-.1-.3-.1-.7-.2-.3 0-.6-.1-.9-.1 0-.1-.1-.1-.1-.3v-.1s0-.1.1-.1h11.4c0 .1 0 .1.1.1v.2l.3 3.1z"/><path d="M647.2 157.8c-.2-.5-.7-.8-1.2-1.1-.3-.1-.8-.3-1.6-.6-.3-.1-.6-.2-.8-.3-.2-.1-.5-.2-.7-.3-.3-.1-.5-.3-.8-.5-.3-.2-.4-.5-.4-.9s.2-.8.5-1 .8-.4 1.2-.4c.4 0 .8.1 1.1.2.3.1.6.3.8.6.2.2.3.5.4.8.1.3.3.6.4.9h.2c.1 0 .2 0 .2-.1.1 0 .1-.1.2-.1v-.3-.4c0-.2 0-.3-.1-.5v-.3c0-.3 0-.5.1-.8 0-.3.1-.5.1-.6 0-.1-.1-.1-.2-.2s-.2-.1-.4-.1l-.3.3-.3.3c-.4-.3-.8-.5-1.2-.6-.4-.1-.8-.1-1.2-.1-.4 0-.9.1-1.2.2s-.7.3-1 .6-.5.6-.6.9c-.1.3-.2.7-.2 1.1 0 .3 0 .6.1.9.1.3.2.6.5.9.2.2.4.4.6.5.2.2.5.3.8.5.2.1.3.2.6.2.2.1.5.2.7.2.3.1.5.2.7.2.2.1.4.1.5.2.3.1.5.3.6.4.1.1.3.2.4.4.2.2.3.5.3.9 0 .2 0 .4-.1.6-.1.2-.2.4-.4.6-.3.3-.8.5-1.6.5-.3 0-.7-.1-1.1-.2-.4-.2-.8-.4-1.1-.8-.1-.1-.2-.2-.2-.4-.1-.2-.2-.4-.2-.5-.1-.2-.2-.4-.2-.5-.1-.2-.1-.3-.2-.4h-.2c-.2 0-.4.1-.5.2v1.6c0 .2 0 .4-.1.7-.1.3-.1.4-.1.6 0 .1.1.2.3.2.1.1.2.1.4.1.2-.1.3-.2.4-.3.1-.1.2-.1.3-.1h.2c.1 0 .1 0 .2.1.3.1.6.3 1.1.4.4.1.8.2 1.3.2s.9-.1 1.3-.2.8-.3 1.1-.6c.3-.3.6-.6.8-1 .2-.4.3-.8.3-1.3-.1-.6-.2-1.1-.5-1.5.2.4.3.9.3 1.5 0 .4-.1.9-.3 1.2-.2.4-.4.7-.8.9-.3.3-.7.5-1.1.6-.4.1-.9.2-1.3.2s-.8-.1-1.2-.2c-.4-.1-.8-.3-1-.4 0 0-.1-.1-.2-.1h-.2c-.1 0-.2 0-.3.1-.1.1-.3.2-.4.3-.1 0-.2 0-.3-.1s-.2-.1-.2-.2 0-.3.1-.5c.1-.3.1-.5.1-.7v-.3-.5-.5-.3c.1-.1.2-.2.4-.2h.1c.1.1.1.2.2.4s.2.4.2.5l.3.6c.1.2.2.3.3.4.3.4.7.6 1.1.8.4.2.8.3 1.1.3.8 0 1.3-.2 1.6-.5.2-.2.4-.4.5-.6.1-.2.1-.4.1-.6 0-.4-.1-.7-.3-.9-.1-.2-.3-.3-.4-.4-.1-.1-.4-.2-.7-.4-.1-.1-.3-.1-.5-.2s-.5-.1-.7-.2c-.3-.1-.5-.2-.7-.2-.2-.1-.4-.2-.6-.2-.3-.2-.6-.3-.8-.5-.2-.2-.4-.3-.6-.5-.2-.3-.4-.6-.4-.9-.1-.3-.1-.6-.1-.9 0-.4.1-.8.2-1.1.1-.3.3-.6.6-.9.3-.2.6-.4 1-.6.4-.1.8-.2 1.2-.2.3 0 .7 0 1.1.1.4.1.8.3 1.2.6l.3-.3.3-.3c.1 0 .2 0 .3.1l.1.1c0 .1 0 .3-.1.6 0 .3-.1.5-.1.8v.3c0 .1 0 .3.1.5v.7c-.1 0-.1.1-.2.1h-.2-.2c-.1-.2-.3-.5-.4-.9-.1-.3-.3-.6-.4-.9-.2-.3-.5-.5-.9-.7-.3-.1-.7-.2-1.1-.2-.5 0-.9.1-1.3.4-.4.3-.6.7-.5 1.1 0 .4.1.8.4 1 .3.2.5.4.8.5.2.1.4.2.7.3s.5.2.8.3c.8.3 1.3.5 1.6.6.7.5 1.1.8 1.4 1.2zm-12.1 1.1c-.2.5-.5.9-.9 1.3-.3.4-.7.7-1.2.9-.5.2-1 .3-1.6.3-.2 0-.4 0-.5-.1-.1-.1-.3-.2-.4-.3-.2-.2-.3-.6-.3-1.1v-7c.1 0 .2 0 .3-.1h.4c.6 0 1.2.1 1.6.2.5.2.9.4 1.3.7.6.4 1 .9 1.2 1.5.2.6.4 1.3.4 2.1-.1.6-.1 1.1-.3 1.6.2-.5.3-1.1.3-1.7 0-.8-.1-1.5-.4-2.1-.2-.6-.7-1.1-1.2-1.5-.4-.3-.8-.5-1.3-.7-.5-.2-1-.2-1.7-.2h-.4c-.1 0-.2 0-.3.1V159.9c0 .6.1 1 .3 1.2.1.2.3.3.5.4.2.1.4.1.6.1.6 0 1.2-.1 1.7-.3.5-.2.9-.5 1.2-.9.3-.5.6-.9.7-1.5zm2.3-2.9c-.1-.5-.2-.9-.4-1.3s-.5-.8-.8-1.1c-.3-.3-.7-.6-1.1-.8-.4-.2-.9-.4-1.4-.5-.5-.1-1.2-.2-1.8-.2H626.5c-.1.1-.1.2-.1.3v.2c.4 0 .7 0 .9.1.2.1.4.2.5.3.1.1.2.2.2.4s0 .3.1.4 0 .5.1 1v4.6c0 .5 0 .8-.1 1-.1.2-.1.4-.1.4-.1.2-.3.3-.5.4-.2.1-.6.1-1.1.2 0 .1 0 .1-.1.2v.1c0 .1 0 .2.1.3h5.6c.6 0 1.1 0 1.6-.1s.9-.2 1.3-.3c.4-.1.7-.4 1-.6.3-.3.6-.6.9-1 .3-.4.5-.9.6-1.4.1-.5.2-1 .2-1.5 0-.2 0-.6-.2-1.1.1.4.1.9.1 1.3 0 .5-.1.9-.2 1.4-.1.5-.3.9-.6 1.3s-.6.7-.9.9c-.3.3-.6.5-1 .6-.4.1-.8.2-1.3.3-.5.1-1 .1-1.6.1h-5.5c0-.1-.1-.1-.1-.2v-.1-.2c.5 0 .9-.1 1.1-.2.2-.1.4-.2.5-.4 0-.1.1-.2.1-.4.1-.2.1-.6.1-1v-2.3-2.3c0-.5 0-.8-.1-1 0-.1 0-.3-.1-.5 0-.2-.1-.3-.2-.4-.1-.1-.3-.2-.5-.3-.2-.1-.5-.1-.9-.1v-.2-.1c0-.1 0-.1.1-.2H631.7c.7 0 1.3.1 1.8.2s1 .3 1.4.5c.4.2.8.5 1.1.8.3.3.6.7.8 1.1s.5 1 .6 1.4zm-12.8-3.8H620v.2c0 .1 0 .2.1.3.1 0 .3.1.4.1.2 0 .3.1.5.1s.3.1.4.1c.1.1.2.1.2.2.2.3.3.6.3 1V159.4c-.1-.2-.3-.4-.6-.7-.2-.3-.4-.5-.6-.7l-5.2-5.7c-.1-.1-.2-.2-.3-.2h-2.8c0 .1-.1.2-.1.3v.1c0 .1 0 .1.1.2.2.1.4.1.6.2.2.1.4.2.5.3l.3.3.2.2c.2.3.3.6.3 1.1v5.7c0 .2-.1.4-.1.5l-.3.3s-.3.1-.4.2c-.1.1-.3.1-.4.1-.2 0-.3.1-.4.1 0 .1 0 .1-.1.2V162.2h4.4c0-.1 0-.1.1-.2v-.1c0-.1 0-.2-.1-.2-.2 0-.4-.1-.7-.1-.2-.1-.5-.2-.6-.3-.1-.1-.2-.2-.3-.4-.1-.1-.1-.4-.2-.7 0-.2 0-.4-.1-.6v-3.3l-.1-1.4 6.9 7.5c.1.1.2.2.3.2h.2c.1 0 .2-.1.2-.1v-.6-.7-.6V155.2c0-.4 0-.7.1-1 .1-.3.2-.5.4-.7.2-.2.4-.3.6-.4.2-.1.5-.1.7-.1 0 0 0-.1.1-.2v-.1c.2-.3.2-.4.1-.5v.4c-.3 0-.5.1-.7.1-.2.1-.4.2-.6.4-.2.2-.3.4-.4.7-.1.3-.2.6-.2 1V162.2c-.1 0-.1.1-.2.1h-.2s-.1 0-.2-.1l-7.1-7.6.1 1.7v3.3c0 .2 0 .4.1.6 0 .3.1.5.2.7.1.2.2.3.3.4.2.2.4.3.7.3.3.1.5.1.7.1 0 .1.1.1.1.2v.1s0 .1-.1.1h-4.3v-.2-.1-.2c.1 0 .3 0 .4-.1.2 0 .3-.1.5-.1.2-.1.3-.1.4-.2l.3-.3c.1-.1.1-.3.1-.5v-4.3-.7-.7c0-.5-.1-.8-.4-1.1l-.2-.2-.3-.3c-.1-.1-.3-.2-.5-.3-.2-.1-.4-.2-.6-.2v-.1-.1c0-.1 0-.2.1-.2H615.4c.1.1.2.1.3.2l5.2 5.7c.2.2.4.5.6.7.2.3.4.5.5.7l.1.1v-4.2-.7-.4c0-.4-.1-.8-.3-1.1-.1-.1-.1-.1-.3-.2-.1-.1-.3-.1-.4-.1-.2 0-.3-.1-.5-.1s-.3-.1-.4-.1c0-.1-.1-.2-.1-.3v-.2h4.5zm-14 9.6v-2.7c-.1-.1-.2-.1-.3-.1h-.1s-.1 0-.2.1c-.1.2-.2.4-.3.7-.1.2-.3.4-.4.6-.2.2-.3.4-.5.5-.1.1-.3.2-.3.3-.1.1-.2.1-.4.1h-2.9c-.1 0-.3-.1-.4-.2-.1-.1-.2-.2-.2-.3-.1-.2-.1-.6-.1-1.1v-2.6h1.1c.2 0 .4.1.5.2.4.1.6.4.7.6.1.3.2.6.2 1.1h.5s.1 0 .1-.1v-.4-.6-.6-.4-1.3c0-.4 0-.6.1-.9-.1-.1-.2-.1-.3-.1-.1 0-.3 0-.3.1s-.1.2-.1.4-.1.3-.1.4c-.1.2-.2.3-.4.4l-.6.3c-.1 0-.3.1-.5.1H604.5v-1.2-.8-.6-.4-.2-.3h2.5c.4 0 .7.1.8.3.1.1.3.2.4.3l.3.3c.1.1.2.3.4.4.1.2.3.4.4.7h.4s.1 0 .1-.1l-.1-2.3c0-.1 0-.2-.1-.2h-.3-8.7l-.1.1v.1c0 .1 0 .2.1.3.3 0 .5.1.7.1.2 0 .4.1.5.2l.3.3c.1.1.1.3.1.6v5.8c0 .5-.1.8-.1 1s-.1.4-.2.5c0 .1-.2.1-.5.2s-.6.1-1 .1V161.8c0 .1 0 .2.1.2h9.5c.2 0 .3 0 .4-.1.2.2.3.1.2-.1-.1.1-.1.2-.1.2h-9.8c0-.1-.1-.1-.1-.2v-.1-.1c.4 0 .7-.1 1-.1.3-.1.4-.1.5-.2.1-.1.2-.3.2-.5s.1-.6.1-1v-.7-.8-1.3-1.5-.9-.6c0-.3 0-.5-.1-.7-.1-.2-.2-.3-.3-.4-.1-.1-.3-.1-.5-.2-.2 0-.5-.1-.7-.1 0-.1-.1-.2-.1-.2v-.1c0-.1 0-.1.1-.1h8.7v.1l.1 2.3c-.1 0-.1 0-.1.1H609.2c-.2-.3-.3-.5-.4-.7-.1-.2-.3-.3-.4-.5l-.3-.3c-.1-.1-.2-.2-.4-.3-.2-.1-.5-.2-.9-.3h-2.4-.1s-.1 0-.1.1V156.3h1c.2 0 .4-.1.5-.1.2-.1.4-.1.6-.3.2-.1.3-.3.5-.4 0-.1.1-.2.1-.4s.1-.3.1-.4c.1 0 .2-.1.3-.1.1 0 .2 0 .2.1 0 .2 0 .5-.1.9v3.4c-.1 0-.1 0-.1.1h-.4c-.1-.4-.1-.8-.2-1.1-.1-.3-.4-.5-.7-.7-.2-.1-.4-.1-.6-.2h-1.1v2.6c0 .6 0 1 .1 1.2 0 .1.1.2.2.3.1.1.2.2.4.2h2.9c.2 0 .4-.1.5-.1.1-.1.2-.2.4-.3l.5-.5s.3-.4.5-.6c.1-.2.3-.5.3-.7H610.4c.1 0 .2 0 .3.1l-.1 2.5zm-12.2-.1v-.1h-.6c-.2 0-.4 0-.5-.1-.3-.1-.5-.3-.5-.6-.1-.3-.1-.7-.1-1.2V155v-.4-.5-.4c0-.1 0-.2.1-.3.1-.2.3-.3.5-.4.3 0 .6-.1.9-.1 0-.1.1-.2.1-.3 0-.1 0-.2-.1-.3h-5.1c0 .1 0 .1-.1.1v.1c0 .1 0 .2.1.3.5 0 .9.1 1.2.2.2.1.4.3.4.6v6.8c0 .3 0 .5-.1.5-.1.2-.3.4-.5.4-.2.1-.6.1-1.1.2 0 .1-.1.2-.1.3v.1s0 .1.1.1h5.3c.1-.1.1-.2.1-.3.1 0 .1 0 0 0v.1c0 .1 0 .1-.1.2H593v-.1-.1c0-.1 0-.2.1-.3.5-.1.8-.1 1.1-.2.2-.1.4-.2.5-.5 0-.1.1-.2.1-.5v-1-1V155v-.7-.8c0-.4-.2-.6-.5-.7-.3-.1-.7-.2-1.2-.2 0-.1-.1-.2-.1-.3v-.1s0-.1.1-.1h5c.1.1.1.2.1.2 0 .1 0 .1-.1.3-.3 0-.6.1-.9.1-.3 0-.5.2-.6.4 0 .1-.1.2-.1.3v6c0 .4 0 .8.1 1.2.1.4.2.6.6.7.1 0 .2.1.5.1.4.2.5.2.7.3v-.1.1c0-.1 0 0 0 0zm-10.6-6.4l-.3.6c-.1.2-.2.3-.4.4s-.3.2-.5.3c-.2 0-.4.1-.8.1h-1.6v-3.6c0-.1 0-.2.1-.2 0 0 .3-.1.6-.1h.9c.3 0 .5 0 .7.1.2.1.4.1.5.2.1.1.3.2.4.4.1.2.2.3.3.5.1.2.1.4.1.6v.7c.1-.2.1-.4.1-.6 0-.2 0-.5-.1-.7l-.3-.6c-.1-.2-.3-.3-.4-.4-.2-.1-.3-.2-.5-.2-.2-.1-.4-.1-.7-.1h-.9c-.3 0-.5 0-.6.1-.1.1-.1.2-.1.3v3.6h1.6c.3 0 .6 0 .8-.1.2-.1.4-.1.6-.3.2-.1.3-.3.4-.5 0-.1.1-.3.1-.5zm3.7 6.3s-.1-.1-.2-.1h-.3c-.1 0-.2 0-.3-.1h-.2c-.1 0-.1-.1-.2-.1-.1-.1-.1-.1-.1-.2l-.3-.9c-.1-.3-.2-.5-.3-.8-.1-.4-.3-.7-.4-.9-.1-.2-.3-.5-.5-.6-.2-.2-.3-.3-.6-.4-.2-.1-.6-.2-.9-.3v-.1c1-.1 1.7-.4 2.2-.8.4-.4.6-1 .6-1.6 0-.6-.2-1.1-.5-1.5-.3-.5-.8-.8-1.4-.9-.2-.1-.5-.1-.9-.1h-6.6v.5c.6 0 1 .1 1.2.3.2.1.4.4.4.7 0 .1.1.4.1.8v5.9c0 .1-.1.3-.1.4 0 .1-.1.3-.2.3 0 0-.1.1-.2.1s-.2.1-.4.1c-.1 0-.3 0-.4.1h-.4c0 .1 0 .1-.1.1v.2s0 .1.1.2H585.8c0-.1 0-.1.1-.1v-.1c0-.1 0-.2-.1-.3-.3 0-.6-.1-.8-.1-.2-.1-.3-.2-.5-.3-.2-.2-.2-.5-.2-1v-2.7H585.2c.2 0 .5 0 .6.1.3.1.5.2.7.5.2.2.4.4.5.6.1.2.2.3.3.6.1.2.2.5.3.7s.1.5.2.8c.1.3.1.5.1.8 0 .2.1.3.1.4.1.1.2.2.4.2h2.9v-.3c.3 0 .3-.1.2-.1v.4h-2.9c-.2 0-.3 0-.3-.1-.1-.1-.1-.2-.1-.4s-.1-.5-.2-.8c-.1-.3-.1-.5-.2-.8-.1-.3-.2-.5-.3-.8l-.3-.6c-.1-.2-.3-.4-.5-.6-.2-.2-.5-.4-.7-.5-.2-.1-.4-.1-.7-.1h-1v2.8c0 .5.1.9.3 1.1.1.2.3.3.5.4.2.1.5.1.8.1.1.1.1.2.1.3v.1l-.1.1h-5.2v-.2-.1-.1-.1h.4c.1 0 .3 0 .4-.1.1 0 .3-.1.4-.1s.2-.1.2-.1c.1-.1.2-.2.2-.4 0-.1.1-.3.1-.4v-.3-.4-.4-3.5-1.5c0-.4-.1-.6-.1-.8-.1-.3-.2-.6-.5-.7-.3-.2-.7-.3-1.3-.3v-.3-.1s0-.1.1-.1h6.6c.3 0 .6.1.8.1.6.2 1.1.5 1.4.9.3.4.4.9.4 1.5s-.2 1.1-.6 1.5c-.4.4-1.1.7-2.1.8v.2c.4.1.7.2.9.3.2.1.4.3.6.4.2.2.3.4.5.6.1.2.3.5.4.9.1.3.2.5.3.8.1.3.2.5.3.8 0 .1.1.1.1.2l.2.2h.5s.2 0 .3.1c.2.1.3.1.3.1zm-12-10.4l-.1-3.1v-.2s0-.1-.1-.1h-11.4c0 .1 0 .1-.1.1v.2c0 .1 0 .2.1.3.3 0 .6.1.9.1.3 0 .5.1.6.1.2.2.3.4.4.5.1.2.2.4.2.6 0 .1 0 .4.1.7v9c-.1.5-.1 1-.2 1.2-.1.3-.2.5-.3.7-.2 0-.5.1-.9.1-.4.1-.7.1-1 .1-.1.1-.1.2-.1.3 0 .1 0 .2.1.3h7.2c0-.1 0-.1.1-.2v-.1c0-.1 0-.2-.1-.3h-.3c-.2 0-.3 0-.5-.1h-.8c-.2-.1-.3-.2-.5-.4s-.3-.5-.4-.9v-.5-.7-.8-.8-1-.6-.3-.2c.2 0 .4-.1.6-.1.4 0 .8 0 1.1.1.3.1.5.1.6.2.3.2.5.4.6.7.1.2.2.5.3.7 0 .2.1.4.1.6s0 .3.1.4h.2c.2 0 .3 0 .3-.1v-.7-.5-.6-.6-.5-.5-.7-.8-.8l-.1-.1h-.4-.1v.4c0 .2 0 .3-.1.5 0 .2-.1.3-.1.5-.1.2-.1.3-.2.4-.1.1-.2.3-.4.3-.2.1-.3.2-.5.2-.2.1-.4.1-.6.1h-1.4v-5.7-.2H576.1c.3 0 .5.1.7.2.1.1.3.2.5.4.2.1.3.3.5.5s.4.5.6.8c.2.3.4.7.6 1.1h.4c.1-.1.1-.2.1-.2h-.1-.1-.1-.1c-.2-.4-.4-.8-.6-1.1-.2-.3-.4-.6-.6-.8l-.5-.5c-.2-.1-.3-.3-.5-.4-.2-.1-.4-.2-.7-.2h-3.4c-.2 0-.3 0-.4.1 0 .1-.1.2-.1.3v5.8h1.4c.2 0 .4-.1.6-.1.2-.1.4-.1.5-.2.2-.1.3-.2.4-.4.1-.1.2-.3.2-.4.1-.2.1-.3.1-.5s0-.3.1-.5v-.4h.4s.1 0 .1.1v5.7s-.1.1-.3.1h-.1-.1c0-.1 0-.2-.1-.4 0-.2-.1-.4-.1-.6 0-.2-.1-.5-.3-.8-.2-.3-.4-.5-.6-.7-.1-.1-.3-.2-.6-.3-.3-.1-.7-.1-1.1-.1-.2 0-.4 0-.6.1v5.1c.1.4.2.7.4.9.2.2.3.4.5.4h.3c.1 0 .3 0 .5.1.2 0 .3 0 .5.1h.4c0 .1.1.2.1.3v.2h-7.3c-.1-.1-.1-.2-.1-.2 0-.1 0-.2.1-.2.3 0 .7-.1 1-.1.4-.1.7-.1.9-.1.2-.2.3-.5.4-.7.1-.3.2-.7.2-1.3v-7.7-1.3c0-.3 0-.6-.1-.7 0-.2-.1-.5-.2-.6-.1-.2-.3-.4-.5-.6-.1-.1-.3-.1-.7-.2-.3 0-.6-.1-.9-.1 0-.1-.1-.1-.1-.3v-.1s0-.1.1-.1h11.4c0 .1 0 .1.1.1v.2l.3 3.1z"/><path fill="#FFF" d="M647.2 157.8c-.3-.4-.7-.8-1.3-1.1-.3-.1-.8-.3-1.6-.6-.3-.1-.6-.2-.8-.3-.2-.1-.5-.2-.7-.3-.3-.1-.6-.3-.8-.5-.3-.2-.4-.5-.4-1 0-.4.2-.8.5-1.1.4-.3.8-.4 1.3-.4.4 0 .8.1 1.1.2.3.1.6.4.8.7.2.2.3.5.4.9s.3.6.4.9h.4c.1 0 .1-.1.2-.1v-.3c0-.1 0-.3-.1-.4 0-.2 0-.3-.1-.5v-.3c0-.3 0-.5.1-.8 0-.3.1-.5.1-.6 0-.1-.1-.1-.2-.2s-.2-.1-.4-.1l-.3.3-.3.3c-.4-.3-.8-.5-1.2-.6s-.8-.1-1.2-.1c-.4 0-.8.1-1.2.2-.4.1-.7.3-1 .6s-.5.5-.6.9c-.1.3-.2.7-.2 1.1 0 .3 0 .6.1.9.1.3.2.6.4.9.2.2.4.4.6.5.2.2.5.3.8.5.1.1.3.2.6.2s.5.2.7.2c.3.1.5.2.7.2.2.1.4.1.5.2.3.1.5.3.7.4.1.1.3.2.4.4.2.2.3.5.3.9 0 .2 0 .4-.1.6-.1.2-.2.4-.5.6-.3.3-.8.5-1.6.5-.3 0-.7-.1-1.1-.2-.4-.2-.8-.4-1.1-.8-.1-.1-.2-.2-.2-.4-.1-.2-.2-.4-.2-.5-.1-.2-.2-.4-.2-.5-.1-.2-.1-.3-.2-.4h-.2c-.2 0-.3.1-.4.2v1.6c0 .2 0 .4-.1.7-.1.3-.1.4-.1.5 0 .1.1.2.2.2.1.1.2.1.4.1.2-.1.3-.2.4-.3s.2-.1.3-.1h.2s.1 0 .2.1c.3.1.6.3 1.1.4.4.1.8.2 1.3.2s.9-.1 1.3-.2.8-.3 1.1-.6.6-.6.8-1c.2-.4.3-.8.3-1.2.1-.7 0-1.2-.3-1.6zm-12.1 1.1c-.2.5-.5 1-.8 1.4-.3.4-.8.7-1.2.9-.5.2-1 .3-1.7.3-.2 0-.4 0-.6-.1s-.3-.2-.5-.4-.3-.6-.3-1.2V152.9c.1 0 .2 0 .3-.1h.4c.6 0 1.2.1 1.7.2.5.2.9.4 1.3.7.6.4 1 .9 1.2 1.5.2.6.4 1.3.4 2.1.1.6 0 1.1-.2 1.6zm2.3-2.9c-.1-.4-.3-.9-.5-1.3s-.5-.8-.8-1.1c-.3-.3-.7-.6-1.1-.8-.4-.2-.9-.4-1.4-.5-.5-.1-1.2-.2-1.8-.2H626.4c-.1.1-.1.2-.1.2V152.6c.4 0 .7 0 .9.1.2.1.4.2.5.3s.2.3.2.4c0 .2 0 .3.1.5 0 .1 0 .5.1 1v4.6c0 .5 0 .8-.1 1s0 .5 0 .5c-.1.2-.3.3-.5.4-.2.1-.6.1-1.1.2V161.9c0 .1 0 .2.1.2h5.5c.6 0 1.1 0 1.6-.1s.9-.2 1.3-.3.7-.3 1-.6c.3-.3.6-.6.9-1 .3-.4.5-.9.6-1.4.1-.5.2-1 .2-1.4 0-.4-.1-.8-.2-1.3zm-12.8-3.8H620v.2c0 .1 0 .2.1.3.1 0 .3.1.4.1.2 0 .3.1.5.1s.3.1.4.1c.1.1.2.1.2.2.2.3.3.6.3 1.1V159.5c-.1-.2-.3-.4-.6-.7-.2-.3-.4-.5-.6-.7l-5.2-5.7c-.1-.1-.2-.1-.3-.2h-2.8c0 .1-.1.2-.1.3v.1s0 .1.1.1c.2.1.4.1.6.2.2.1.4.2.5.3l.3.3.2.2c.2.3.3.6.3 1.1v5.7c0 .2-.1.4-.1.5l-.3.3s-.3.2-.4.2c-.1.1-.3.1-.5.1s-.3.1-.4.1v.5h4.3c0-.1 0-.1.1-.2v-.1c0-.1 0-.1-.1-.2-.2 0-.4-.1-.7-.1s-.5-.2-.7-.3c-.1-.1-.2-.2-.3-.4-.1-.1-.1-.4-.2-.7 0-.2 0-.4-.1-.6v-3.3l-.1-1.5 7 7.5c.1.1.2.2.3.2h.2c.1 0 .2-.1.2-.1v-.6-.7-.6V155.1c0-.4 0-.7.1-1 .1-.3.2-.5.4-.7.2-.2.4-.3.6-.4.2-.1.5-.1.7-.1v-.1-.1c.3-.3.3-.4.3-.5zm-14 9.6v-2.6c-.1-.1-.2-.1-.3-.1h-.1s-.1 0-.2.1c-.1.2-.2.5-.3.7-.1.2-.3.4-.5.6s-.3.4-.5.5c-.1.1-.3.2-.4.3-.1.1-.2.1-.5.1h-2.9c-.1 0-.3-.1-.4-.2s-.2-.2-.2-.3c-.1-.2-.1-.6-.1-1.2v-2.6h1.1c.2 0 .4.1.6.2.4.1.6.4.7.7.1.3.2.6.2 1.1h.5s.1 0 .1-.1v-.4-.6-.6-.4-1.3c0-.4 0-.7.1-.9-.1-.1-.1-.1-.3-.1-.1 0-.2 0-.3.1 0 .1-.1.2-.1.4s-.1.3-.1.4c-.1.2-.3.3-.4.4l-.6.3c-.1 0-.3.1-.5.1H604.3v-1.3-.8-.6-.4-.2-.3h2.5c.4 0 .7.1.9.3.1.1.3.2.4.3l.3.3c.1.1.2.3.4.4.1.2.3.4.4.7H609.5s.1 0 .1-.1l-.1-2.3c0-.1 0-.2-.1-.2h-.3-8.6s0 .1-.1.1v.1c0 .1 0 .2.1.3.3 0 .5.1.7.1.2 0 .4.1.5.2l.3.3c.1.1.1.4.1.6v5.8c0 .5-.1.8-.1 1s-.1.4-.2.5c-.1.1-.2.1-.5.2s-.6.1-1 .1v.2c0 .1 0 .1.1.2h9.5c.2 0 .3 0 .4-.1s.3.2.3 0zm-12.2-.1v-.1h-.6s-.4 0-.5-.1c-.3-.1-.5-.3-.5-.7-.1-.3-.1-.7-.1-1.2V155v-.4-.5-.5c0-.1 0-.2.1-.3.1-.2.3-.4.6-.4s.6-.1.9-.1c0-.1.1-.2.1-.3 0-.1 0-.1-.1-.2h-5c0 .1 0 .1-.1.1v.1c0 .1 0 .2.1.3.5 0 .9.1 1.2.2.3.1.4.3.4.7v6.8c0 .3 0 .5-.1.5-.1.2-.3.4-.5.5-.2.1-.6.1-1.1.2 0 .1-.1.2-.1.3v.2h5.3c.1-.1.1-.2.1-.3 0-.2 0-.2-.1-.2zm-10.6-6.4c-.1.2-.1.4-.3.6-.1.2-.2.3-.4.5s-.4.2-.6.3c-.2 0-.4.1-.8.1h-1.6v-3.6c0-.1 0-.2.1-.3s.3-.1.6-.1h.9c.3 0 .5 0 .7.1.2.1.4.1.5.2s.3.2.4.4c.1.2.2.4.3.5.1.2.1.4.1.7.2.2.1.4.1.6zm3.7 6.3h-.5c-.1 0-.2 0-.3-.1h-.2c-.1 0-.1-.1-.2-.1-.1-.1-.1-.1-.1-.2-.1-.3-.2-.6-.3-.8-.1-.3-.2-.5-.3-.8-.1-.4-.3-.7-.4-.9s-.3-.4-.5-.6c-.1-.1-.3-.3-.6-.4-.2-.1-.5-.2-.9-.3v-.1c1-.1 1.7-.4 2.2-.8.4-.4.6-1 .6-1.5 0-.6-.2-1.1-.5-1.5-.3-.4-.8-.7-1.4-.9-.2-.1-.5-.1-.8-.1h-6.6c0 .1 0 .1-.1.1v.4c.6 0 1 .1 1.3.3s.4.4.5.7c0 .1.1.4.1.8V160.9c0 .1-.1.3-.1.4s-.1.3-.2.4c0 0-.1.1-.2.1s-.2.1-.4.1c-.1 0-.3 0-.4.1h-.4v.5H586c0-.1 0-.1.1-.1v-.1c0-.1 0-.2-.1-.3-.3 0-.6-.1-.8-.1s-.4-.2-.5-.3c-.2-.2-.3-.6-.3-1.1v-2.7H585.3s.5 0 .7.1c.3.1.5.3.7.5.2.2.4.4.5.6l.3.6c.1.2.2.5.3.8.1.3.2.5.2.8s.1.5.2.8c0 .2.1.3.1.4.1.1.2.2.4.2h2.9v-.3c0-.6-.1-.7-.1-.7zm-12-10.4l-.2-3.1v-.2s0-.1-.1-.1h-11.4c0 .1-.1.1-.1.1v.1c0 .1 0 .2.1.3.3 0 .6.1.9.1.3 0 .5.1.6.2.2.2.3.4.5.6.1.2.2.4.2.6 0 .1 0 .4.1.7v9c-.1.5-.1 1-.2 1.3-.1.3-.2.5-.4.7-.2 0-.5.1-.9.1s-.7.1-1 .1c-.1.1-.1.2-.1.3 0 .1 0 .2.1.3h7.3c0-.1 0-.1.1-.1v-.1c0-.1 0-.2-.1-.3h-.4c-.2 0-.3 0-.5-.1s-.3 0-.5-.1h-.3c-.2-.1-.3-.2-.5-.4s-.3-.5-.4-.9v-.5-.7-.9-.8-1.1-.6-.3-.2c.2 0 .4-.1.6-.1.4 0 .8 0 1.1.1.3.1.5.1.6.2.3.2.5.4.6.7.2.2.2.5.3.7 0 .2.1.4.1.6 0 .2 0 .3.1.4h.2c.1 0 .2 0 .3-.1v-.7-.5-.6-.6-.5-.5-.7-.8-.8s-.1 0-.1-.1h-.4-.1c0 .1 0 .2-.1.4 0 .2 0 .3-.1.5 0 .2-.1.3-.1.5-.1.2-.1.3-.2.4-.1.1-.2.3-.4.4s-.3.2-.5.2c-.2.1-.4.1-.6.1h-1.4v-5.7c0-.1 0-.2.1-.3 0 0 .1-.1.3-.1h3.4c.3 0 .5.1.7.2.1.1.3.2.5.4.2.1.3.3.5.5s.4.5.6.8c.2.3.4.7.6 1.1h.4c.1-.1.2-.1.2-.1z"/><path fill="#FFF" d="M647.2 157.8l.1-.1c-.3-.5-.7-.8-1.3-1.1-.3-.2-.8-.4-1.6-.6-.3-.1-.6-.2-.8-.3-.2-.1-.5-.2-.7-.3l-.1.1.1-.1c-.3-.1-.5-.3-.8-.5-.2-.2-.3-.5-.3-.8 0-.4.2-.7.5-.9.3-.3.7-.4 1.2-.4.4 0 .8.1 1.1.2.3.1.6.3.8.6l.1-.1-.1.1c.2.2.3.5.4.8.1.3.3.6.4.9H646.5c.1 0 .2 0 .3-.1.1 0 .1-.1.2-.1h.1v-.1-.3c0-.1 0-.3-.1-.4s0-.3-.1-.5v-.3c0-.2 0-.5.1-.8 0-.3.1-.5.1-.6 0-.1-.1-.2-.2-.3-.1-.1-.3-.1-.4-.1h-.1l-.3.3-.3.3.1.1.1-.1c-.4-.3-.8-.5-1.3-.6-.4-.1-.8-.1-1.2-.1-.5 0-.9.1-1.3.2s-.7.3-1 .6c-.3.3-.5.6-.7.9-.2.4-.2.8-.2 1.2 0 .3 0 .6.1.9.1.3.2.7.5.9.2.2.4.4.6.5.2.2.5.3.8.5l.1-.1-.1.1c.2.1.4.2.6.2.2.1.5.2.7.2s.5.2.7.2c.2.1.4.1.5.2.3.1.5.3.6.4.1.1.2.2.4.3.2.2.2.5.2.8 0 .2 0 .4-.1.6-.1.1-.2.3-.4.5-.3.3-.8.4-1.5.4-.3 0-.7-.1-1.1-.2-.4-.2-.7-.4-1-.8l-.1.1.1-.1c-.1-.1-.2-.2-.2-.4-.1-.2-.2-.4-.2-.5-.1-.2-.2-.4-.2-.5-.1-.2-.1-.3-.2-.4v-.1H640.8c-.2 0-.4.1-.6.3v1.6c0 .2 0 .4-.1.6-.1.3-.1.4-.1.6l.3.3c.1.1.3.1.4.1.2-.1.3-.2.4-.3s.2-.1.2-.1H641.6c.3.2.7.3 1.1.4.4.1.9.2 1.3.2.5 0 .9-.1 1.4-.2.4-.1.8-.4 1.2-.6.3-.3.6-.6.8-1 .2-.4.3-.8.3-1.3 0-.6-.1-1.2-.4-1.6l-.1.6-.1.1c.2.4.4.9.4 1.5 0 .4-.1.8-.3 1.2-.2.4-.4.7-.7.9s-.7.4-1.1.6-.8.2-1.3.2c-.4 0-.8-.1-1.2-.2-.4-.1-.8-.3-1-.4l-.1.1.1-.1c-.1 0-.1-.1-.2-.1h-.2c-.1 0-.2 0-.4.1-.1.1-.3.2-.5.3l.1.1v-.1c-.1 0-.2 0-.3-.1-.1 0-.1-.1-.2-.1l-.1.1h.1c0-.1 0-.3.1-.5.1-.3.1-.5.1-.7v-.3-.5-.5-.3h-.1l.1.1c.1-.1.2-.2.3-.2h.1v-.1l-.1.1c0 .1.1.2.2.4s.2.4.2.5l.3.6c.1.2.2.3.3.5.3.4.7.7 1.1.8.4.2.8.3 1.2.3.8 0 1.4-.2 1.7-.5l-.1-.1.1.1c.2-.2.4-.4.5-.6.1-.2.1-.4.1-.7 0-.4-.1-.7-.3-1l-.1.1.1-.1c-.1-.2-.3-.3-.4-.4-.1-.1-.4-.2-.7-.4-.1-.1-.3-.1-.5-.2s-.5-.1-.7-.2c-.3-.1-.5-.2-.7-.2-.2-.1-.4-.2-.6-.2-.3-.2-.6-.3-.8-.5-.2-.1-.4-.3-.6-.5l-.1.1.1-.1c-.2-.3-.3-.5-.4-.8-.1-.3-.1-.6-.1-.9 0-.4.1-.7.2-1.1.1-.3.3-.6.6-.8l.9-.6c.4-.1.7-.2 1.2-.2.3 0 .7 0 1.1.1.4.1.8.2 1.1.5l.1.1.1-.1.3-.3.3-.3-.1-.1v.1c.1 0 .2 0 .3.1 0 0 .1 0 .1.1h.1-.1c0 .1 0 .3-.1.6 0 .3-.1.5-.1.8v.3c0 .1 0 .3.1.4V155.2h.1l-.1-.1c-.1 0-.1.1-.2.1h-.1-.1v.1l.1-.1c-.1-.2-.3-.5-.4-.8-.1-.3-.3-.6-.4-.9-.2-.3-.5-.6-.9-.7-.3-.1-.7-.2-1.2-.2s-1 .2-1.4.5c-.4.3-.6.7-.6 1.2 0 .4.1.8.5 1.1.3.2.6.4.9.5.2.1.4.2.7.3.2.1.5.2.8.3.8.3 1.3.5 1.6.6.6.3 1 .6 1.2 1l.1-.3zm-12.1 1.1h-.1c-.2.5-.4.9-.8 1.3-.3.4-.7.7-1.2.9-.4.2-1 .3-1.6.3-.2 0-.4 0-.5-.1-.1-.1-.3-.2-.4-.3-.2-.2-.3-.5-.3-1.1v-7h-.1v.1c.1 0 .2 0 .3-.1h.4c.6 0 1.2.1 1.6.2.5.1.9.4 1.2.6.5.4.9.9 1.2 1.4.2.6.4 1.2.4 2 0 .6-.1 1.2-.3 1.7l.2.1.1.1c.2-.5.3-1.1.3-1.8 0-.8-.1-1.5-.4-2.1-.3-.6-.7-1.1-1.3-1.6l-.1.1.1-.1c-.4-.3-.8-.5-1.3-.7-.5-.2-1.1-.2-1.7-.2h-.4c-.1 0-.2 0-.3.1h-.1v7.2c0 .6.1 1 .3 1.3l.1-.1-.1.1c.2.2.3.3.5.4.2.1.4.1.6.1.7 0 1.2-.1 1.7-.3.5-.2.9-.5 1.3-1l-.1-.1.1.1c.4-.4.7-.9.8-1.4l-.1-.1zm2.3-2.9h.1c-.1-.5-.3-.9-.5-1.3s-.5-.8-.8-1.1c-.3-.3-.7-.6-1.1-.9l-.1.1.1-.1c-.4-.2-.9-.4-1.4-.5-.6-.1-1.2-.2-1.9-.2H626.3v.1c-.1.1-.1.2-.1.3v.4h.1c.4 0 .7 0 .9.1.2.1.3.2.4.3.1.1.1.2.2.3 0 .1 0 .3.1.4 0 .1 0 .5.1.9v4.6c0 .5 0 .8-.1 1 0 .1-.1.2-.1.3v.1c-.1.2-.2.3-.4.3-.2.1-.6.1-1.1.2h-.1v.1c0 .1 0 .1-.1.2v.1c0 .1 0 .2.1.3v.1h5.6c.6 0 1.1 0 1.6-.1s.9-.2 1.3-.3c.4-.2.8-.4 1.1-.6.3-.3.6-.6.9-1 .3-.4.5-.9.7-1.4.1-.5.2-1 .2-1.5 0-.4-.1-.9-.2-1.3v.1h-.1c.1.4.1.9.1 1.3 0 .5-.1.9-.2 1.4-.1.5-.3.9-.6 1.3l.1.1-.1-.1c-.3.4-.6.7-.8.9-.3.2-.6.4-1 .6l-1.2.3c-.5.1-1 .1-1.6.1h-5.5v.1l.1-.1v-.2-.1-.1l-.1-.1v.1c.5 0 .9-.1 1.1-.2.3-.1.5-.3.6-.5l-.2.2.1.1s0-.1.1-.2c0-.1 0-.2.1-.3.1-.2.1-.6.1-1.1v-2.3-2.3c0-.5 0-.8-.1-1 0-.2 0-.3-.1-.5 0-.2-.1-.3-.2-.5-.1-.1-.3-.3-.6-.3-.2-.1-.6-.1-1-.1v.1h.1v-.2-.1s0-.1.1-.2l-.1-.1v.1H631.8c.7 0 1.3.1 1.8.2s1 .3 1.4.5c.4.2.8.5 1.1.8.3.3.5.7.8 1.1.2.4.3.8.4 1.2l.1.1zm-12.8-3.8v-.1h-4.7v.4c0 .1 0 .2.1.4v.1h.1c.1 0 .3.1.5.1s.3.1.5.1.3.1.4.1c.1 0 .2.1.2.1l.1-.1-.1.1c.1.3.2.6.3 1V159.6h.1l.1-.1c-.1-.2-.3-.4-.6-.7-.2-.3-.4-.5-.6-.7l-5.2-5.7c-.1-.1-.2-.2-.4-.2h-2.9v.1c-.1.1-.1.2-.1.3v.1c0 .1 0 .1.1.2.2.1.4.1.6.2.2.1.4.2.5.2l.3.3.2.2.1-.1-.1.1c.2.2.3.6.3 1v5.7c0 .2-.1.4-.1.5l.1.1-.1-.1c-.1.1-.2.2-.3.2-.1.1-.2.1-.4.2s-.3.1-.4.1c-.2 0-.3.1-.4.1h-.1v.1c0 .1 0 .1-.1.2v.5h4.5v-.1c0-.1.1-.1.1-.2v-.2c0-.1 0-.2-.1-.3v-.1h-.1c-.2 0-.4-.1-.7-.1l-.6-.3-.3-.3c-.1-.1-.1-.3-.2-.6 0-.2 0-.4-.1-.6v-3.3l-.1-1.1 6.7 7.3c.1.1.1.1.2.1s.1.1.2.1h.2c.1 0 .2-.1.3-.1h.1v-.1-.6-.7-.6V155.2c0-.4 0-.7.1-1 .1-.3.2-.5.4-.6.2-.2.3-.3.5-.3.2-.1.4-.1.7-.1h.1v-.1c0-.1.1-.1.1-.2v-.1c0-.1 0-.2-.1-.3v-.1h-.1v-.2l-.1.1v.4l.1.1v-.1c-.3 0-.5.1-.8.1-.2.1-.5.2-.7.4-.2.2-.3.4-.4.7-.1.3-.2.7-.2 1.1V162.4h.1l-.1-.1c-.1 0-.1.1-.2.1h-.1v.1-.1.1-.1s-.1-.1-.2-.1l-.1.1.1-.1-7.3-7.8.1 1.9v3.3c0 .2 0 .4.1.6h.1-.1c0 .3.1.6.2.7.1.2.2.3.4.4.2.2.4.3.7.3.3.1.5.1.7.1v-.1l-.1.1v.4l.1.1v-.1h-4.3v.1h.1v-.2-.1-.1l-.1-.1v.1c.1 0 .3 0 .4-.1.2 0 .3-.1.5-.1.2-.1.3-.1.4-.2.1-.1.3-.2.3-.3.1-.2.1-.3.1-.6v-4.3-.7-.7h-.1.1c0-.5-.1-.9-.4-1.2l-.2-.2-.3-.3-.1.1.1-.1c-.1-.1-.3-.2-.6-.3-.2-.1-.4-.2-.6-.2l-.1.1.1-.1v-.1-.1-.2l-.1-.1v.1H614.7v-.1l-.1.1c.1 0 .2.1.3.2l.1-.1-.1.1 5.2 5.7.1-.1-.1.1c.2.2.4.5.6.7.2.3.4.5.5.7l.3.3v-4.5-.7-.4h-.1.1c0-.4-.1-.8-.3-1.1-.1-.1-.2-.2-.3-.2-.1-.1-.3-.1-.5-.1s-.3-.1-.5-.1-.3-.1-.4-.1v.1l.1-.1c0-.1-.1-.2-.1-.2v-.2l-.1-.1v.1H624v-.1l-.1.1.7-.1zm-14 9.6h.1v-2.7h-.1c-.1-.1-.2-.1-.4-.1h-.2c-.1 0-.1 0-.2.1h-.1v.1c-.1.2-.2.4-.3.7-.1.2-.3.4-.4.6-.2.2-.3.4-.5.5-.1.1-.3.2-.3.3-.1 0-.2.1-.4.1h-2.9c-.1 0-.2-.1-.3-.2-.1-.1-.2-.2-.2-.3l-.1.1.1-.1c-.1-.2-.1-.5-.1-1.1v-2.6h-.1v.1h1.1c.2 0 .3.1.5.2.3.1.5.3.6.6.1.3.2.6.2 1v.1H607.2s.1 0 .1-.1h.1v-.1-.4-.6-.6-.4-1.3c0-.4 0-.7.1-.9v-.1c-.1-.1-.2-.1-.4-.1-.1 0-.3 0-.4.1h-.1v.1c0 .1-.1.2-.1.5 0 .2-.1.3-.1.4l.1.1-.1-.1c-.1.1-.2.3-.4.4-.2.1-.4.2-.5.2-.1 0-.3.1-.4.1h-.8v-1.1-.8-.6-.4-.2h-.1.1v-.4h-.1v.1s.1 0 .1-.1h-.1v.1h2.4v-.1.1c.4 0 .7.1.8.2.1.1.2.2.4.3l.3.3c.1.1.2.3.4.4.1.2.3.4.4.7v.1H609.5s.1 0 .1-.1h.1l-.1-2.4h-.1.1v-.2c0-.1-.1-.1-.1-.1h-.3-8.7c-.1.1-.1.1-.1.2v.2c0 .1 0 .2.1.3v.1h.1c.3 0 .5.1.7.1.2 0 .3.1.5.1l.3.3c.1.1.1.3.1.6v5.8c0 .4-.1.8-.1 1 0 .2-.1.4-.2.4l.1.1-.1-.1-.4.2c-.3.1-.6.1-1 .1h-.1v.1c0 .1-.1.1-.1.2v.1c0 .1 0 .2.1.3v.1H610c.2 0 .3 0 .5-.1.1-.1.2-.2.2-.4h-.2v.1h-9.1v.1-.1h-.6v.1l.1-.1v-.2-.1-.1l-.1-.1v.1c.4 0 .7-.1 1-.1.3-.1.5-.1.6-.2.1-.1.2-.3.2-.6 0-.2.1-.6.1-1v-.7-.8-1.3-1.5-.9-.6c0-.3 0-.5-.1-.7-.1-.2-.2-.3-.4-.4-.2-.1-.3-.2-.6-.2-.2 0-.5-.1-.7-.1v.1l.1-.1c0-.1-.1-.2-.1-.2v-.1-.1l-.1-.1v.1h8.7v.1l.1 2.3h.1l-.1-.1c-.1 0-.1 0-.2.1H609.1v.1l.1-.1c-.2-.3-.3-.5-.5-.7-.1-.2-.3-.3-.4-.5l-.3-.3c-.1-.1-.2-.2-.4-.3l-.1.1.1-.1c-.2-.2-.5-.2-.9-.3h-2.5v.1-.1h-.1s-.1.1-.1.2V156.3h1.2c.2 0 .4-.1.5-.1v-.1.1l.6-.3c.2-.1.4-.3.5-.5.1-.1.1-.2.1-.4s.1-.3.1-.4h-.1l.1.1h.5l.1-.1h-.1c0 .2 0 .5-.1.8v3.4h.1l-.1-.1c-.1 0-.1 0-.1.1H607v.1h.1c-.1-.4-.1-.8-.2-1.1-.1-.3-.4-.6-.8-.7-.2-.1-.4-.1-.6-.2h-1.3v2.7c0 .6 0 1 .1 1.2 0 .1.1.2.2.4.1.1.3.2.5.3v-.1.1h2.9c.2 0 .4-.1.5-.2l-.1-.1.1.1c.1-.1.2-.2.4-.3l.5-.5c.2-.2.3-.4.5-.6.1-.2.3-.5.3-.7h-.1l.1.1h.2c.1 0 .1 0 .2.1l.1-.1h-.1v2.6h.1zm-12.2-.1h.1s0-.1-.1-.1v-.1h-.7c-.2 0-.4 0-.4-.1-.3-.1-.4-.3-.4-.6-.1-.3-.1-.7-.1-1.1V155v-.4-.5-.4-.2c.1-.2.2-.3.5-.3s.6-.1.9-.1h.1v-.1c0-.1.1-.2.1-.3 0-.1-.1-.2-.2-.3v-.1H593v.1s0 .1-.1.1c0 .1-.1.1-.1.2s0 .2.1.3v.1h.1c.5 0 .9.1 1.1.2.2.1.3.2.3.5h.1-.1V161c-.1.2-.2.3-.4.4-.2.1-.6.1-1 .2h-.1v.1c0 .1-.1.2-.1.3v.1c0 .1 0 .1.1.2v.1h5.4v-.1c.1-.1.1-.2.1-.3V161.7h-.1v.1s0 .1-.1.2l.1.1v-.1H593v.1l.1-.1v-.1-.1-.2l-.1-.1v.1c.5-.1.8-.1 1.1-.2.3-.1.5-.3.6-.5l-.1-.1.1.1c0-.1 0-.1.1-.2v-.4-1-1V155v-.7-.8c0-.4-.2-.7-.5-.8-.3-.1-.7-.2-1.2-.2v.1l.1-.1c0-.1-.1-.2-.1-.2l.1-.1-.1-.1v.1h5v-.1l-.1.1.1.1s0 .1-.1.2h.1v-.1c-.3 0-.6.1-.9.1-.3 0-.6.2-.7.5l.1.1-.1-.1c0 .1-.1.2-.1.3v6c0 .4 0 .8.1 1.2.1.4.3.7.6.8.1 0 .3.1.5.1.4.3.6.3.8.3v-.1l-.1.1v.1l.1-.1zm-10.6-6.4h-.1c-.1.2-.1.4-.2.6-.1.2-.2.3-.4.4-.2.1-.3.2-.5.2v.1-.1c-.2 0-.4.1-.7.1h-1.5v.1h.1v-3.6-.2h1.4c.2 0 .5 0 .6.1.2 0 .3.1.5.2.1.1.3.2.4.4.1.2.2.3.3.5 0 .2.1.4.1.6 0 .2 0 .4-.1.6h.2c.1-.2.1-.5.1-.7 0-.3 0-.5-.1-.7l-.3-.6-.1.1.1-.1c-.1-.2-.3-.3-.4-.4-.2-.1-.3-.2-.6-.3-.2-.1-.4-.1-.7-.1h-1.3c-.1 0-.2 0-.3.1-.1.1-.2.2-.2.4v3.7h1.7c.3 0 .6 0 .8-.1l.6-.3c.2-.1.3-.3.4-.5l.3-.6-.1.1zm3.7 6.3v-.1h-.5c-.1 0-.2 0-.3-.1h-.1s-.1 0-.1-.1-.1-.1-.1-.2l-.1.1h.1l-.3-.9s-.2-.5-.3-.8c-.1-.4-.3-.7-.5-.9-.2-.2-.3-.5-.5-.6-.2-.2-.4-.3-.6-.4-.3-.1-.6-.2-1-.3v.1h.1v-.1h-.1v.1c1-.1 1.8-.4 2.2-.9.4-.5.7-1 .7-1.6 0-.6-.2-1.1-.5-1.6s-.8-.8-1.5-1v.1-.1c-.2-.1-.5-.1-.9-.1H580.5v.2h.2c-.1.1-.1.1-.1.2s0 .2.1.3v.1h.1c.6 0 1 .1 1.2.3.2.1.3.3.4.6 0 .1.1.4.1.8v5.9c0 .1-.1.3-.1.4 0 .1-.1.2-.2.3 0 0-.1.1-.2.1s-.2.1-.4.1c-.1 0-.3 0-.4.1h-.5v.1c0 .1 0 .1-.1.2v.2c0 .1 0 .1.1.2v.1h5.4v-.1-.1c.1-.1.1-.1.1-.2s-.1-.2-.1-.4v-.1h-.1c-.3 0-.6-.1-.8-.1-.2-.1-.3-.2-.4-.3-.1-.2-.2-.5-.2-1v-2.6h.8c.2 0 .4 0 .6.1v-.1.1c.2.1.5.2.7.5.2.2.4.4.5.6l.1-.1-.1.1c.1.1.2.3.3.6.1.2.2.5.3.7.1.3.1.5.2.8.1.3.1.5.1.8 0 .2.1.3.2.5s.3.2.5.2h3v-.1-.3c0-.1 0-.2-.1-.3v-.1h-.1v.1l-.1.1v.4h.1v-.1h-2.9c-.1 0-.2 0-.2-.1-.1-.1-.1-.2-.1-.4s-.1-.5-.2-.8c-.1-.3-.1-.6-.2-.8-.1-.3-.2-.5-.3-.8l-.3-.6c-.1-.2-.3-.4-.5-.6-.2-.2-.5-.4-.8-.5-.2-.1-.5-.1-.7-.1h-1.1v2.9c0 .5.1.9.3 1.2l.1-.1-.1.1c.1.2.3.3.6.4.2.1.5.1.8.1v-.1l-.1.1c.1.1.1.2.1.2h.2c-.1.1-.1.1-.1.2l.1.1v-.1H581v.1l.1-.1v-.1-.1-.1-.1l-.1-.1v.1h.4c.1 0 .3 0 .4-.1.1 0 .3-.1.4-.1.1 0 .2-.1.3-.2.1-.1.2-.3.2-.4 0-.2.1-.3.1-.5h-.1.1v-.3-.4-.4-3.5-1.5c0-.4-.1-.6-.1-.8-.1-.3-.2-.6-.5-.8-.3-.2-.7-.3-1.3-.3v.1l.1-.1v-.2h-.1l.1.1h-.1l.1.1s0-.1.1-.1v-.1l-.1-.1v.1h6.6c.3 0 .6.1.8.1.6.2 1.1.5 1.3.9.3.4.4.9.4 1.4 0 .6-.2 1-.6 1.4-.4.4-1.1.7-2.1.8h-.1v.4h.1c.4.1.7.2.9.3.2.1.4.3.5.4.2.2.3.4.5.6.1.2.3.5.4.9.1.3.2.5.3.8.1.3.2.5.3.8 0 .1.1.1.1.2l.2.2.1-.1-.1.1c.1 0 .1 0 .2.1h.3c.1 0 .2 0 .3.1h.2v-.2l-.1.1v-.1zm-12-10.4h.1l-.2-3.1v-.3s0-.1-.1-.1v-.1h-11.6v.1s0 .1-.1.1c-.1.1-.1.1-.1.2s0 .3.1.4v.1h.1c.3 0 .6.1.9.1.3 0 .5.1.6.1l.1-.1-.1.1c.2.2.3.4.4.5.1.2.2.4.2.6 0 .1 0 .4.1.7v9h.1-.1c-.1.5-.1 1-.2 1.2-.1.3-.2.5-.3.7l.1.1v-.1c-.2 0-.5.1-.9.1-.4.1-.7.1-1 .1h-.1v.1c-.1.1-.1.2-.1.3 0 .1 0 .2.1.3v.1H574.9v-.1c0-.1.1-.1.1-.2v-.1c0-.1 0-.2-.1-.3v-.1h-.4c-.2 0-.3 0-.5-.1h-.8v.1l.1-.1c-.1-.1-.3-.2-.4-.4-.1-.2-.3-.5-.4-.8h-.1.1v-.5-.7-.8-.8h-.1.1v-1.1-.6-.3-.2h-.1v.1c.2 0 .4-.1.6-.1.4 0 .8 0 1.1.1.3.1.5.1.5.2.3.2.5.4.6.7.1.2.2.5.2.7 0 .2.1.4.1.6 0 .2 0 .3.1.4v.1h.4c.2 0 .3 0 .4-.1v-.8-.5-.6-.6-.5-.5-.7-.8-.9h-.1c-.1 0-.1-.1-.2-.1h-.4-.2v.1c0 .1 0 .2-.1.4 0 .2 0 .3-.1.5 0 .2-.1.3-.1.5-.1.2-.1.3-.2.4-.1.1-.2.2-.4.3-.2.1-.3.2-.5.2-.2.1-.4.1-.5.1h-1.4v.1h.1v-5.7-.2h-.1v.1h-.1v.1h3.6c.3 0 .5.1.6.2.1.1.3.2.5.4.2.1.3.3.5.5s.4.5.6.8c.2.3.4.7.6 1.1v.1h.4c.1 0 .2 0 .3-.1h.2v-.1l.1-.6-.1-.1c-.1 0-.1.1-.1.1l.1.1v-.1l.1.1v-.1h-.1-.1-.1v.1l.1-.1c-.2-.4-.4-.8-.6-1.1-.2-.3-.4-.6-.6-.8l-.5-.5c-.2-.1-.3-.3-.5-.4l-.1.1.1-.1c-.2-.1-.5-.2-.8-.2h-3.6c-.1 0-.1 0-.2.1s-.1.2-.1.4v5.8h1.5c.2 0 .4-.1.6-.1.2-.1.4-.1.6-.2.2-.1.3-.2.5-.4l-.1-.1.1.1c.1-.1.2-.3.3-.5.1-.2.1-.4.1-.5 0-.2 0-.3.1-.5v-.4h-.1v.1h.4l.1-.1h-.1v5.7h.1l-.1-.1H576.1v.1-.1.1-.1h-.1l-.1.1h.1c0-.1 0-.2-.1-.4 0-.2-.1-.4-.1-.6 0-.3-.1-.5-.3-.8-.2-.3-.4-.5-.7-.7l-.1.1.1-.1c-.1-.1-.4-.2-.7-.3-.3-.1-.7-.1-1.1-.1-.2 0-.4 0-.6.1h-.1V160.1c.1.4.2.7.4.9l.5.5h.3c.1 0 .3 0 .5.1h.9v-.1l-.1.1v.4l.1.1v-.1h-7.3v.1l.1-.1c-.1-.1-.1-.1-.1-.2s0-.1.1-.2l-.1-.1v.1c.3 0 .7-.1 1-.1.4-.1.7-.1.9-.1h.1v-.1c.2-.2.3-.5.4-.8.1-.3.2-.7.2-1.3v-7.7-1.3c0-.3 0-.6-.1-.7h-.1.1c0-.3-.1-.5-.3-.7-.1-.2-.3-.4-.5-.6-.2-.1-.4-.2-.7-.2-.3 0-.6-.1-.9-.1v.1l.1-.1v-.2-.1l.1-.1-.1-.1v.1h11.4v-.1l-.1.1c0 .1 0 .1.1.1v.2h.1-.1l.2 3.1.1.3-.1-.1.1.1z"/><g fill="#FFF"><path d="M562.1 148.8c-.2-.7-.7-1.1-1.4-1.1V163s-2-.6-3.8-1.4c-2.1-.9-3.8.1-3.9.2-.2-.1-1.8-1.1-3.9-.2-1.8.8-3.8 1.4-3.8 1.4v-15.4c-.6 0-1.2.5-1.3 1.1v15.5h18.1v-15-.2-.2z"/><path d="M548.5 156.8c.4.8.9 1.5 1.4 2.1l3.1-3 3.1 3c.5-.7 1-1.4 1.4-2.1l-4.5-4.3-4.5 4.3zM559.6 147.6c-.5.2-1.1.2-1.7.2-2.1 0-3.9-1.1-4.8-2.7-1 1.6-2.8 2.7-4.8 2.7-.6 0-1.1-.1-1.7-.2-.1 1.6 0 3.1.3 4.6h12.5c.2-1.5.3-3.1.2-4.6"/></g></svg>