<svg xmlns="http://www.w3.org/2000/svg" width="32" height="32" viewBox="0 0 32 32"><path fill="#002C64" d="M15.1 30.2c-1.2-.1-1.9-.2-2.7-.4-2.8-.7-5.1-2.1-7.2-4.1-3-3-4.8-6.9-5.1-11.5-.1-.6-.1-3.4-.1-6.7V1.8h32v.4c.1.7.1 11 0 11.9-.3 3.1-.9 5.4-2.3 7.8-2.6 4.8-7.2 7.8-12.3 8.3-.8 0-1.7.1-2.3 0z"/><path fill="#FFF" d="M17.2 29.5c1.8-.1 4.4-1 6-1.9 2.7-1.6 4.9-3.9 6.3-6.9.8-1.6 1.2-4 1.2-7 0-1.4 0-1.7-.2-2.6-.5-2.7-1.8-5.2-3.7-7-.4-.4-.5-.5-.5-.8 0-.5 0-.5-3.5-.5-2.7 0-3.2 0-3.4.1-.4.2-.5.7-.1.7s.7.1 1 .3c.4.3.7.3 1.2.1.5-.2.7-.2.9 0 .1.1.2.2.2.5 0 .4-.1.5-.7.5-.5 0-.9-.2-1.7-.7-.6-.4-.8-.4-2.2 0-1.1.3-1.2.4-1.3.6-.3.4-.3.8 0 1.6.2.4.3.8.3.9 0 .1.1.2.2.2.2 0 .2 0 .4-.2.2-.4.6-.4 1.1-.3.8.2 1.4.5 2.3 1.4.5.5 1.1 1.9 1.2 3.2.1.9.1 2.3-.1 3.1-.5 2-1.7 3.9-3.2 4.9-.3.2-1.2.7-1.6.8-.5.2-1.8.2-2.4.1-1.2-.3-2.7-1.3-3.6-2.5-.3-.4-.7-1.4-.8-2.2-.1-.7 0-1.9.1-2.4.4-1.4 1.6-2.7 3.2-3.5.9-.4 1.1-.7 1-1.3-.1-.4-.3-.7-.6-1l-.3-.2H.7v2.6l.3.2.3.2h8s-.2.2-.4.5c-1 1.8-1.3 3.8-.8 6 .2.8.9 2.2 1.6 3.2 1.1 1.4 2.8 2.5 4.4 2.8.8.2 2.1.2 3 .1l.5-.1-.3.4c-.5.7-1 2-1.2 3.5-.1.8-.5 1.8-.8 2.2-.1.2-.2.3-.2.4 0 0 .2.1.5.1h.7s.5 0 .9-.1z"/><path fill="#FFF" d="M14 29.2c.3-.1.7-.5.9-.8.1-.2.2-.7.3-1.2.2-.9.5-1.7.9-2.6.1-.3.2-.5.2-.5h-.4c-.2 0-.7-.1-1-.1-.3-.1-.7-.1-.8-.1-.4.1-1.5 1.3-2.3 2.5-.4.6-1 1.1-1.8 1.4-.3 0-.5.2-.4.2.1.2 1.8.8 3.3 1.1.8.2.8.2 1.1.1zM9.4 27.1c.8-.4 1.2-.8 1.6-1.5.5-.7.7-1 1.5-1.6.3-.2.5-.4.5-.4s-.2-.1-.3-.2c-.4-.2-1.1-.6-1.7-1-.4-.3-.8-.3-1.5-.1-.4.1-1.6.7-2.2 1.1-.9.6-1.5.8-2.1.8h-.5c0 .3.9 1.2 2.1 2 1.1.8 1.6 1.1 1.9 1.1.1.1.4 0 .7-.2zM5.4 23.5c.1-.1.5-.3.8-.5 1.2-.8 2.4-1.3 3.2-1.4.3 0 .5-.1.5-.1s-1.8-2.3-2-2.6c-.4-.5-1.6-.5-2.6 0-.7.3-1.5.5-2.3.5-.5 0-.8 0-.9-.1-.2-.1-.2-.1-.2 0 0 .2 1.5 3.2 1.8 3.5.5.7 1.1 1 1.7.7zM2.9 18.7c1.4-.3 3.1-.6 3.5-.7.3 0 .5 0 .7.1.1.1.2.1.3.1 0 0 0-.2-.1-.4s-.2-.8-.3-1.3c-.1-.5-.1-.9-.2-1 0-.1-.2-.2-.4-.3-.3-.2-.4-.2-2.6-.2-2.1 0-2.4-.1-2.6-.2-.2-.1-.3-.1-.4-.1l.4 3c.1.7.2.8.4 1 .3.1.6.2 1.3 0zM15.6 18.3c.3-.3.8-.3 1.1 0 .1.1.2.1 1.6.1h1.5v-6.6h-1v-.6c0-.7 0-.7-.8-.5-.6.2-1.1.4-1.5.8l-.3.3-.3-.3c-.4-.4-.9-.7-1.5-.8-.8-.2-.7-.2-.8.5v.6h-1v6.5h3z"/><path fill="#C30035" d="M13.2 15.3c0-2.5 0-2.6.1-2.6s.1 0 .1 2.2v2.2h.4c.2 0 .5.1.7.1.3.1 1.2.6 1.2.6h-2.6v-2.5zM16.6 17.7c.7-.4 1.1-.6 1.6-.6h.5v-4.4h.4v5.2h-2.8l.3-.2z"/><path fill="#C30035" d="M15.6 16.8c-.3-.2-1-.5-1.2-.5h-.2v-4.6l.3.1c.4.1.9.4 1.1.6l.2.2v2.1c-.1 2.2-.1 2.2-.2 2.1zM16.6 14.8c0-1.9 0-2.2.1-2.3.2-.3.7-.6 1.1-.7l.3-.1v4.6h-.2c-.2 0-.8.3-1.1.5l-.2.1v-2.1z"/><path fill="#FFF" d="M6.9 14.3c0-.3.2-1.4.3-1.8.1-.3.1-.4 0-.7-.2-.6-.1-.6-3.1-.6H1.5L1 11l-.5-.2v.6c.1 1.2.3 2.2.4 2.4.1.1.2.3.3.3.1.1.9.1 2.4.1 2.3 0 2.9.1 3.1.3.1.1.2 0 .2-.2z"/></svg>