<svg xmlns="http://www.w3.org/2000/svg" xmlns:xlink="http://www.w3.org/1999/xlink" width="109.75" height="30.875" viewBox="0 0 109.75 30.875"><path fill="#F58025" d="M6.885 25.037c1.56 1.97 3.38 3.75 5.432 5.283 2.03-1.513 3.86-3.28 5.44-5.27l-5.444-5.295-5.428 5.282z"/><path fill="#F58025" d="M4.352 21.25l7.967-7.652 7.98 7.673c1.327-2.356 2.333-4.936 2.952-7.69.028-.132.05-.26.08-.392H1.31c.597 2.838 1.63 5.552 3.04 8.062"/><path fill="#F58025" d="M4.347 21.25c.742 1.324 1.592 2.59 2.54 3.787l5.427-5.28 5.445 5.294c.94-1.183 1.788-2.446 2.536-3.778L12.314 13.6l-7.967 7.65z"/><path d="M17.734 24.677l-5.245-5.1-.176-.17-.175.17-5.23 5.088c-.83-1.077-1.587-2.207-2.25-3.368l7.654-7.35 7.668 7.37c-.67 1.172-1.425 2.3-2.248 3.36"/><path d="M12.313 13.598l7.982 7.673c-.748 1.333-1.597 2.597-2.537 3.78l-5.445-5.295-5.428 5.28c-.947-1.196-1.797-2.462-2.54-3.786l7.968-7.652m0 .694l-7.34 7.05c.588 1.014 1.247 2.003 1.965 2.947l5.026-4.893.35-.34.348.34 5.045 4.905c.712-.936 1.37-1.922 1.96-2.94l-7.354-7.07zM23.827 5.028c-.936.285-1.93.44-2.963.44-3.642 0-6.824-1.915-8.54-4.764-1.72 2.85-4.9 4.763-8.544 4.763-1.03 0-2.025-.154-2.96-.437-.243 2.78-.065 5.525.487 8.164h22.018c.576-2.752.732-5.496.502-8.166"/><defs><path id="a" d="M6.896 6.03h10.85v6.397H6.896z"/></defs><clipPath id="b"><use xlink:href="#a" overflow="visible"/></clipPath><path clip-path="url(#b)" fill="#FFF" d="M17.746 8.396V7.46h-.572V6.8l-.6-.168h-.043v-.56s-.206.248-1.155.248c-.9 0-1.426-.29-2.14-.29-.688 0-.9.39-.9.39v.228h-.023V6.42s-.214-.39-.898-.39c-.715 0-1.242.292-2.14.292-.95 0-1.114-.248-1.114-.248v.59h-.04l-.65.136v.66h-.574v.936h.575V9.91h-.574v.937h.575v1.164s.963.152 1.854.152c1.053 0 1.66-.153 2.344-.166v.295s.275.137.642.137c.372 0 .666-.136.666-.136v-.294c.682.013 1.29.166 2.348.166.887 0 1.85-.15 1.85-.15v-1.165h.572V9.91h-.572V8.396h.572z"/><path d="M16.622 6.57l.002-.716-.173.183c0 .002-.215.215-1.082.215l-1.176-.156-.966-.135c-.53 0-.795.218-.91.35-.117-.132-.383-.35-.91-.35l-.967.138-1.175.156c-.854 0-1.032-.205-1.034-.207l-.175-.217-.003.275v.492l-.697.147v5.38l.084.013c.01 0 .98.152 1.87.152.875 0 1.915-.116 2.243-.155v.244l.054.028c.013.006.3.147.688.147.39 0 .695-.14.708-.147l.058-.027v-.245c.33.04 1.37.154 2.25.154.885 0 1.857-.152 1.867-.153l.084-.012V6.75l-.638-.18zm-4.207-.07c.008-.012.198-.34.81-.34l.924.13 1.218.16c.59 0 .89-.09 1.057-.17v5.084c-.012-.026-.252.156-1.057.156l-1.176-.156-.966-.135c-.42 0-.665.134-.81.255V6.5zM8.25 6.29c.16.08.448.163 1.015.163l1.217-.16.923-.133c.607 0 .8.325.81.342v4.986c-.147-.123-.395-.258-.818-.258l-.966.137-1.165.154c-.854 0-1.032-.204-1.034-.206 0 0 .02-4.685.02-5.025m8.81 5.66c-.244.036-1.024.138-1.75.138-1.04 0-2.324-.162-2.336-.164l-.113-.016v.342c-.097.037-.313.103-.565.103-.247 0-.45-.066-.543-.1v-.345l-.112.016c-.013.002-1.297.164-2.33.164-.73 0-1.51-.102-1.755-.137V6.908l.497-.104v4.57c.05.105.258.347 1.213.347l1.21-.158.922-.133c.618 0 .81.327.82.34l.028-.015h.143l.027.016c.008-.013.198-.34.81-.34l.924.13 1.218.16c.968 0 1.21-.254 1.234-.283l.02-4.657.44.123v5.048z"/><path d="M9.667 7.185c-.078.006-.13.047-.152.1l-.32.712s-.016.012-.026.012c-.01 0-.023-.013-.03-.034-.008-.025-.047-.125-.13-.32l-.105-.234c-.037-.086-.066-.142-.076-.16-.038-.064-.085-.07-.136-.078-.006-.007-.006-.016-.006-.02 0-.008 0-.012.004-.022h.053c.06 0 .11.004.156.004.054 0 .142-.006.2-.006h.036c.006.002.008.014.008.02 0 .004 0 .017-.004.023-.04.004-.127.002-.127.057 0 .01.002.033.008.047l.21.5.177-.415c.022-.046.024-.087.024-.11 0-.046-.033-.067-.12-.077-.002-.006-.006-.015-.006-.02 0-.007.004-.02.006-.025h.025c.04 0 .078.006.166.006.017 0 .077-.004.106-.004h.06c.005.008.01.012.01.02 0 .005-.005.017-.01.023M10.56 7.983c-.256 0-.395-.006-.43-.006l-.12-.002c-.036 0-.118.006-.208.006H9.75l-.002-.02v-.024c.07-.006.12-.017.13-.027.014-.018.023-.054.028-.13l.002-.127-.002-.236v-.133c-.002-.092-.048-.092-.143-.104-.002-.008-.004-.014-.004-.02 0-.007 0-.02.007-.023h.047c.03 0 .115.002.275.002h.32l.088.003c.02 0 .027.002.027.02l.012.19c-.012.007-.014.01-.024.01-.008 0-.014 0-.02-.003-.056-.096-.083-.115-.126-.147-.016-.01-.04-.02-.075-.02-.01 0-.04-.003-.113-.003-.06 0-.09.002-.097.002-.01 0-.007 0-.01.033-.003.02-.005.06-.005.17v.11h.03c.036 0 .073-.004.095-.01.033-.01.068-.033.086-.06.007-.01.014-.057.018-.07.006-.005.016-.007.028-.007.007 0 .015.002.02.006 0 .035-.007.1-.007.182l.003.167c-.008.006-.012.006-.023.006-.006 0-.018 0-.024-.003-.007-.072-.02-.12-.08-.146-.033-.013-.06-.017-.093-.017-.018 0-.04.002-.057.004v.22c0 .052.004.083.012.1.005.014.025.044.05.047.012.002.034.006.078.006h.122c.03 0 .076-.004.09-.013.03-.02.11-.104.136-.182.012-.004.018-.004.026-.004.007 0 .015.003.025.007v.223c0 .02-.014.023-.045.023M11.575 7.405l-.023-.002c-.02-.053-.043-.1-.063-.125-.036-.043-.07-.072-.157-.082-.02-.002-.067-.002-.082-.002v.629c.003.098.046.098.147.11.006.01.008.02.008.025 0 .008-.002.013-.006.02h-.038l-.213-.003c-.026 0-.155.006-.216.006-.005-.01-.007-.01-.007-.022 0-.006.002-.014.005-.022.135-.01.15-.035.153-.078.004-.027.004-.14.004-.252v-.308c0-.04-.003-.08-.01-.104-.025 0-.107 0-.13.01-.068.025-.117.082-.17.185h-.02c-.01 0-.017 0-.02-.006v-.217c0-.02 0-.026.024-.026.02 0 .05.003.092.003.03 0 .153.002.307.002.203 0 .353-.006.392-.006.02 0 .034 0 .04.007.003.004 0 .02 0 .03v.218c-.002.008-.012.01-.02.01M9.626 8.728L9.6 8.726c-.017-.053-.04-.1-.062-.125-.033-.042-.068-.072-.156-.08-.02-.003-.067-.003-.082-.003l-.002.373.002.256c.002.098.047.098.148.11.006.01.006.02.006.025 0 .01 0 .014-.004.022h-.037c-.06 0-.178-.004-.213-.004-.025 0-.154.006-.217.006-.003-.01-.005-.01-.005-.024l.003-.022c.136-.01.15-.035.156-.078.002-.027.002-.14.002-.252V8.62c0-.038 0-.078-.006-.103-.026 0-.11 0-.133.01-.07.024-.116.08-.17.184-.007.003-.016.003-.022.003-.008 0-.014-.002-.02-.007V8.49c0-.02.004-.027.026-.027l.09.002.31.002c.2 0 .353-.006.39-.006.022 0 .036 0 .042.01.003.004 0 .02 0 .03v.217c-.004.01-.012.01-.02.01M10.59 9.306c-.253 0-.394-.006-.427-.006l-.123-.002c-.033 0-.117.006-.205.006l-.05-.002c-.005-.008-.006-.012-.006-.02 0-.005 0-.015.002-.023.07-.007.118-.018.127-.028.015-.018.023-.053.027-.13.002-.038.004-.08.004-.126V8.74c0-.067-.003-.106-.003-.133-.002-.092-.045-.092-.14-.104-.005-.008-.007-.015-.007-.02 0-.007.004-.02.01-.023h.045c.033 0 .115.002.275.002l.323.002.086.002c.02 0 .028.002.028.02l.01.19c-.01.007-.014.01-.024.01-.006 0-.012 0-.02-.003-.054-.096-.08-.115-.126-.147-.016-.01-.037-.02-.073-.02-.01 0-.04-.003-.115-.003-.056 0-.088.002-.094.002-.01 0-.01 0-.013.033 0 .02-.002.06-.002.17v.11h.028c.04 0 .076-.004.096-.01.035-.01.068-.033.088-.06.006-.01.015-.057.017-.07.007-.005.017-.007.027-.007.01 0 .017.003.023.007-.002.035-.01.1-.01.182 0 .04.006.13.006.166-.01.006-.012.006-.023.006-.008 0-.018 0-.026-.002-.007-.072-.017-.12-.08-.146-.033-.014-.06-.018-.092-.018-.017 0-.04.002-.056.004v.22c0 .052.003.083.01.1.006.014.026.044.05.047.01.002.035.006.077.006h.124c.032 0 .075-.004.09-.013.032-.02.11-.104.137-.182.01-.004.018-.004.025-.004.006 0 .016.002.024.006v.223c0 .02-.014.023-.045.023M11.185 9.325c-.07 0-.148-.027-.195-.05-.008-.005-.024-.01-.032-.01-.01 0-.035.015-.062.035-.02 0-.043-.01-.05-.026 0-.017.017-.07.017-.103 0-.02-.006-.115-.008-.136.008-.012.023-.018.037-.018h.014c.017.036.052.127.078.164.053.06.13.088.187.088.064 0 .11-.01.138-.04.04-.038.047-.06.047-.102 0-.03-.006-.057-.024-.076-.02-.028-.038-.04-.086-.063-.038-.017-.168-.05-.215-.076-.06-.026-.09-.05-.118-.08-.036-.046-.05-.107-.05-.155 0-.135.108-.237.26-.237.057 0 .135.006.202.06.013-.017.03-.034.048-.05.026 0 .043.014.045.023-.002.02-.013.074-.013.117 0 .02.013.11.013.125-.01.004-.02.01-.033.01-.004 0-.01 0-.015-.002-.025-.04-.046-.11-.072-.147-.04-.053-.093-.072-.168-.072-.084 0-.152.054-.152.126 0 .07.057.103.103.125.037.014.08.03.128.046.063.02.11.037.135.05.098.05.14.124.14.223-.002.155-.142.255-.298.255M9.966 10.63c-.256 0-.395-.006-.43-.006l-.12-.002c-.036 0-.118.006-.208.006l-.05-.002c-.004-.008-.004-.012-.004-.02v-.023c.07-.006.12-.017.13-.027.014-.018.024-.053.028-.13l.002-.126-.002-.236V9.93c-.002-.09-.047-.09-.143-.103-.003-.008-.005-.015-.005-.02 0-.007.002-.02.008-.023h.047c.03 0 .115.002.275.002l.32.002.09.002c.018 0 .026.002.026.02l.013.19c-.012.007-.014.01-.024.01s-.015 0-.02-.003c-.057-.096-.084-.115-.127-.147-.016-.01-.04-.02-.075-.02-.01 0-.04-.003-.113-.003-.058 0-.088.002-.096.002-.01 0-.008 0-.012.032-.002.02-.004.06-.004.17v.11h.03c.036 0 .073-.004.095-.01.032-.01.067-.033.085-.06.008-.01.015-.057.02-.07.005-.005.015-.007.027-.007.007 0 .015.002.02.006 0 .036-.007.1-.007.183l.004.167c-.01.006-.013.006-.024.006-.006 0-.018 0-.024-.002-.007-.072-.02-.12-.08-.146-.033-.014-.06-.018-.093-.018-.02 0-.04.002-.058.004v.22c0 .052.004.083.012.1.005.014.025.044.05.047.012.003.034.007.078.007h.122c.03 0 .076-.004.09-.013.03-.02.11-.104.136-.182.012-.004.018-.004.026-.004.007 0 .015.002.025.006v.223c0 .02-.013.023-.044.023M11.196 9.827c-.086.004-.16.05-.16.187l-.002.434c0 .018.008.14.008.188-.014.007-.028.013-.035.013-.004 0-.012-.007-.022-.014l-.596-.64.005.13.002.236c0 .018.004.063.008.096.004.053.02.07.043.09.03.025.078.033.113.037.005.006.007.013.007.02 0 0-.002.013-.008.02h-.219l-.126.003h-.028c-.002-.006-.002-.016-.002-.02s0-.01.004-.02c.043-.005.11-.025.135-.06.01-.02.014-.06.014-.1v-.304c0-.05-.002-.074-.004-.12-.002-.04-.01-.07-.03-.093-.002-.005-.02-.024-.04-.044-.02-.016-.067-.03-.096-.04l-.006-.02c0-.006.003-.016.007-.022h.02c.02 0 .11.004.18.004h.042c.007.004.02.012.024.018l.442.482c.033.037.076.086.1.117v-.348c0-.046-.003-.08-.005-.097-.003-.035-.01-.067-.024-.09-.014-.022-.096-.033-.14-.043-.003-.008-.003-.018-.003-.025 0-.004 0-.01.002-.018h.026c.042 0 .108.006.15.006.1 0 .132-.004.183-.004h.033c.004.008.004.016.004.02 0 .005 0 .015-.004.02M13.98 7.18c-.085.005-.16.052-.16.188v.434c0 .018.005.14.005.188-.012.007-.028.013-.033.013-.006 0-.012-.006-.024-.013l-.596-.64.008.13.002.236c0 .018.004.063.006.096.006.053.02.07.043.09.032.025.08.033.114.037.004.005.006.012.006.018 0 .002-.002.014-.006.022h-.066l-.154-.002c-.038 0-.088.004-.125.004h-.03l-.003-.02c0-.004 0-.01.006-.02.04-.005.108-.025.133-.06.012-.02.014-.06.014-.1v-.304c0-.05 0-.074-.002-.12-.002-.04-.012-.07-.03-.093-.004-.006-.02-.025-.043-.045-.017-.016-.066-.03-.095-.04l-.004-.02c0-.006.002-.016.004-.022h.023c.016 0 .108.004.178.004h.042c.008.004.02.012.027.018l.44.482c.034.037.077.086.1.117v-.35c0-.045-.004-.08-.006-.096-.002-.035-.01-.067-.025-.09-.015-.022-.097-.033-.138-.043-.004-.007-.006-.017-.006-.024 0-.004 0-.01.004-.018h.026c.04 0 .107.006.148.006.1 0 .133-.004.184-.004h.03c.005.008.007.016.007.02 0 .005-.002.015-.006.02M14.857 7.878c-.082.08-.196.127-.3.127-.1 0-.216-.043-.296-.12-.087-.085-.126-.198-.126-.323 0-.12.04-.233.127-.32.095-.088.196-.126.298-.126.074 0 .142.02.223.063.13.083.208.222.208.374 0 .12-.047.238-.13.324m-.138-.617c-.04-.054-.092-.087-.168-.087-.07 0-.115.03-.156.088-.05.065-.078.17-.078.3 0 .13.027.23.074.295.043.062.092.093.166.093.09 0 .142-.042.183-.115.04-.064.056-.154.056-.27 0-.14-.027-.238-.076-.302M16.056 7.185c-.076.006-.127.047-.15.1l-.32.712s-.016.012-.026.012c-.01 0-.024-.013-.03-.034-.007-.025-.046-.125-.132-.32l-.102-.233c-.037-.086-.066-.142-.076-.16-.04-.064-.084-.07-.135-.078-.008-.008-.008-.016-.008-.02 0-.01 0-.013.006-.023h.053c.06 0 .11.004.154.004.053 0 .14-.006.202-.006h.033c.008.002.01.014.01.02 0 .004 0 .017-.004.023-.04.004-.126.002-.126.057 0 .01 0 .033.007.047l.21.5.178-.415c.02-.046.022-.087.022-.11 0-.046-.034-.067-.12-.077-.003-.006-.005-.014-.005-.02 0-.007.002-.02.004-.025h.024c.04 0 .078.006.168.006.014 0 .076-.004.105-.004h.06c.005.008.007.012.007.02 0 .005-.002.017-.008.023M13.704 8.728l-.025-.002c-.02-.053-.042-.1-.064-.125-.033-.042-.068-.07-.156-.08-.02-.003-.067-.003-.082-.003l-.002.373.002.256c.002.098.047.098.148.11.006.01.006.02.006.025 0 .01 0 .014-.004.022h-.037c-.06 0-.177-.004-.212-.004-.025 0-.154.006-.217.006-.002-.01-.004-.01-.004-.023l.003-.02c.134-.01.148-.036.154-.08.002-.026.002-.138.002-.25v-.31c0-.038 0-.078-.006-.103-.026 0-.11 0-.133.01-.068.025-.115.082-.168.185-.01.002-.018.002-.024.002-.008 0-.014-.002-.02-.007V8.49c0-.02.004-.027.026-.027l.09.002.31.002c.2 0 .353-.006.39-.006.022 0 .036 0 .042.01.003.003 0 .02 0 .03v.217c-.004.01-.012.01-.02.01M14.716 9.306h-.066c-.043 0-.092-.006-.143-.006-.08 0-.18.006-.22.006-.004-.004-.006-.012-.006-.022 0-.005.003-.013.005-.02.082-.003.115-.017.115-.05 0-.014 0-.04-.026-.11-.025-.062-.04-.09-.045-.105-.004-.007-.006-.01-.024-.01h-.266c-.018.02-.04.08-.062.162-.006.02-.006.04-.006.048 0 .028.025.06.12.06.005.01.005.02.005.024 0 .006 0 .012-.002.02h-.023c-.063 0-.08-.004-.147-.004l-.18.004c-.003-.008-.005-.01-.005-.018 0-.005 0-.01.004-.02.05-.013.097-.026.12-.064.014-.02.06-.097.108-.218.047-.114.104-.256.13-.315l.058-.124c.017-.037.037-.074.044-.088.008-.01.026-.015.034-.015.013 0 .03.007.037.017.008.016.017.03.02.04.048.118.087.222.148.366.03.073.047.12.08.196.023.047.037.084.06.127.032.063.082.063.133.077.002.006.008.012.008.02 0 .007-.004.01-.008.02m-.533-.67h-.002c-.017.032-.048.104-.06.136-.044.11-.06.146-.068.162h.252c-.02-.05-.084-.206-.12-.3M16.02 9.306l-.34-.004h-.095l-.005-.02c0-.013.002-.015.007-.023.018-.003.063 0 .084-.01.037-.014.05-.05.05-.1v-.608h-.002l-.18.395c-.02.043-.042.09-.062.137-.04.09-.062.154-.074.19-.006.017-.02.017-.027.017-.012 0-.02-.003-.026-.023-.024-.05-.04-.084-.048-.105l-.28-.62h-.007v.16l.006.393c0 .12.064.178.16.178l.007.02c0 .005-.002.013-.006.02-.005 0-.024.003-.042.003-.012 0-.074-.006-.164-.006l-.12.002H14.8c-.002-.008-.004-.014-.004-.02l.004-.02c.024-.005.106-.024.123-.042.02-.018.035-.053.035-.137V8.65c-.002-.07-.01-.096-.043-.12-.014-.01-.067-.015-.112-.02-.004-.01-.006-.018-.006-.024 0-.006.002-.014.006-.024.034 0 .092.004.15.004h.206c.008.006.01.01.017.022l.252.57.045-.113c.04-.092.096-.23.176-.38.018-.032.04-.075.05-.097l.32-.006c.005.008.01.014.01.022 0 .008-.003.013-.007.02-.036.007-.097.007-.126.056-.01.016-.016.03-.016.1v.408c0 .156.04.172.057.183.01.007.06.013.086.013.005.008.007.014.007.022 0 .01-.005.013-.006.02M13.685 10.052l-.025-.002c-.018-.053-.04-.1-.063-.125-.033-.043-.068-.072-.156-.082-.02-.002-.066-.002-.08-.002l-.003.374.002.256c0 .098.046.098.147.11.006.01.006.02.006.025 0 .008 0 .013-.004.02h-.038l-.213-.003c-.026 0-.155.006-.218.006-.003-.01-.005-.01-.005-.023l.003-.022c.135-.01.15-.035.155-.078.002-.027.002-.14.002-.252v-.308c0-.04 0-.08-.006-.104-.025 0-.11 0-.132.01-.068.026-.115.083-.168.186-.008.002-.017.002-.023.002-.008 0-.014-.002-.02-.007v-.216c0-.02.004-.026.026-.026l.09.002.31.002c.2 0 .353-.006.39-.006.022 0 .036 0 .042.008.003.004 0 .02 0 .03v.218c-.004.008-.013.01-.02.01M14.733 9.83c-.076.007-.127.048-.15.1l-.32.713s-.016.012-.026.012c-.01 0-.024-.012-.03-.033-.007-.025-.046-.125-.132-.32l-.102-.233c-.037-.087-.066-.143-.076-.16-.04-.065-.084-.07-.135-.08-.008-.007-.008-.015-.008-.02 0-.008 0-.012.006-.022h.053c.06 0 .11.004.154.004.053 0 .14-.006.202-.006h.032c.008.002.01.014.01.02 0 .004 0 .017-.004.023-.04.003-.127 0-.127.056 0 .01 0 .033.008.047l.21.5.177-.415c.02-.046.022-.087.022-.11 0-.046-.034-.067-.12-.077-.003-.005-.005-.013-.005-.02l.004-.024h.025c.04 0 .08.006.17.006.013 0 .075-.004.104-.004h.06c.005.008.007.012.007.02 0 .005 0 .017-.007.023M16.038 10.63l-.34-.004h-.096c-.003-.008-.003-.017-.003-.02 0-.013 0-.015.004-.023.02-.002.063 0 .086-.008.034-.015.047-.05.047-.1V9.98l.002-.116h-.005l-.177.395c-.022.044-.043.09-.065.138-.04.09-.062.154-.074.19-.005.017-.02.017-.028.017-.01 0-.018-.004-.026-.024-.02-.05-.037-.083-.045-.104l-.282-.62h-.006v.16l.006.393c.002.12.063.177.16.177.004.006.006.018.006.02 0 .005 0 .013-.004.02-.008 0-.025.003-.045.003-.012 0-.072-.006-.162-.006l-.12.002h-.056c-.004-.008-.006-.014-.006-.02 0-.003.003-.013.007-.02.022-.005.106-.024.123-.042.016-.018.032-.053.032-.137l.002-.2-.002-.233c-.002-.07-.008-.096-.043-.12-.015-.01-.068-.015-.11-.02-.007-.01-.01-.018-.01-.024 0-.006.003-.014.01-.024.03 0 .09.004.148.004h.207c.006.006.01.01.015.022l.252.57.047-.113c.036-.093.095-.232.175-.38.016-.033.04-.076.05-.098l.32-.006c.003.008.01.014.01.022 0 .008-.005.013-.01.02-.032.007-.093.007-.122.056-.01.016-.018.03-.018.1v.408c0 .156.04.172.06.183.007.006.056.012.083.012.006.008.008.014.008.022 0 .01-.004.012-.008.02M108.962 5.56c0-.043-.01-.12-.032-.152h-.25c-.546 0-.894.02-1.876.02-.338 0-.84-.02-.96-.02h-.282c-.033.02-.044.142-.044.185 0 .055.01.14.054.186.176.054.84.128 1.123.315.197.23.284.686.317 1.112.01.162.02.326.02.773v2.28c0 .26-.01.347-.02.468-.187-.207-.446-.6-.884-1.09l-3.642-4.035c-.032-.043-.098-.098-.163-.14-.088 0-.24-.012-.326-.012-.7 0-1.963-.03-2.148-.03-.022.042-.045.107-.045.15 0 .023.022.176.032.21.164.042.523.097.818.413.174.195.48.47.577.687.033.077.044.196.044.348 0 .566-.033 1.363-.033 2.125v2.215c0 .36-.03.642-.064.828-.23.24-.58.414-1.146.555-.022.057-.043.143-.043.198 0 .033.01.143.033.152h.207c.218 0 .72-.033 1.046-.033.48 0 .807.033 1.254.033h.654c.043-.01.055-.142.055-.185 0-.043-.013-.13-.034-.174-.38-.097-.938-.185-1.308-.675-.077-.164-.142-.97-.142-1.353 0-.348-.012-.826-.012-1.47 0-.862.012-1.614.022-1.995.065.076.142.174.196.238l5.037 5.66c.053.053.25.065.304.065.054 0 .087 0 .13-.022.022-.054.1-.23.1-.49 0-.316-.012-.645-.012-.807V7.544c0-1.363.644-1.744 1.396-1.777.034-.055.044-.152.044-.206M96.47 9.026c0 1.646-.46 3.098-1.08 3.61-.316.26-.71.392-1.156.392-.61 0-1.145-.24-1.45-.73-.413-.633-.643-1.81-.643-2.835 0-1.517.393-2.705 1.092-3.283.37-.304.75-.424 1.133-.424.59 0 1.157.284 1.483.752.414.568.62 1.386.62 2.518m1.973.207c0-1.525-.675-2.69-1.94-3.39-.675-.372-1.35-.557-2.07-.557-1.59 0-3.03.95-3.675 2.03-.414.675-.63 1.415-.63 2.2 0 1.254.61 2.486 1.558 3.195.72.525 1.537.785 2.486.785.577 0 1.122-.108 1.655-.315.6-.23 1.113-.59 1.516-1.037.71-.772 1.1-1.766 1.1-2.91M88.86 7.86V5.636c0-.164-.064-.207-.23-.207-.326 0-2.048.042-3.792.042-1.353 0-2.476-.02-3.086-.02h-.808c-.14 0-.185.032-.185.184v2.082c.044.034.12.045.175.045.043 0 .196 0 .24-.023.49-.99.948-1.526 1.526-1.82.326-.032.97-.043 1.144-.043.012.12.022.5.032.96.012.784.012 1.122.012 2.975 0 1.604-.012 2.322-.032 2.496-.044.305.01.535-1.298.59-.033.076-.033.162-.033.25 0 .043 0 .13.012.174h.424c.403 0 1.353-.043 1.745-.043.316 0 1.33.032 1.994.032h.304c.033-.055.033-.174.033-.228 0-.067-.01-.143-.043-.198-.12 0-.818.022-1.123-.207-.032-.12-.098-.436-.098-.82-.01-1.175-.022-1.622-.022-2.407 0-1.014.012-1.7.012-3.588.152 0 .502-.01.828 0 .677.185 1.004.437 1.298.828.185.252.383.676.577 1.19.066.02.12.02.186.02.045 0 .187-.022.208-.043m-9.396 3.543c0-.152 0-.22-.012-.317-.054-.033-.076-.033-.164-.033-.076 0-.162 0-.24.022-.37.84-.904 1.494-1.198 1.668-.163.1-.414.12-.818.12h-.893c-.35 0-.622-.032-.72-.054-.164-.034-.338-.296-.414-.47-.077-.185-.12-.185-.12-.687V9.267h.403c.108 0 .37.022.664.152.273.12.383.283.49.458.1.15.165.752.186.905.056.03.197.043.285.043.087 0 .142-.012.218-.055 0-.294-.064-1.09-.064-1.526 0-.545.075-1.297.107-1.688-.042-.023-.106-.045-.216-.045-.076 0-.22 0-.283.034-.032.153-.152.61-.175.643-.162.273-.447.48-.74.568-.196.053-.48.086-.633.086h-.23V7.83c0-1.047.022-1.385.033-1.582.01-.13.032-.272.044-.37.097-.01.15-.02.653-.02.63 0 .927.01 1.024.01.306.022.534.087.698.218.414.316.73.816 1.046 1.35.066.023.176.023.23.023.066 0 .076-.022.164-.065 0-.666-.045-1.527-.066-1.8-.012-.108-.03-.14-.25-.14-.088 0-.502-.023-.938-.023-.62 0-.873.01-1.822.01-.512 0-1.57.01-2.017.01-.652 0-1.21-.02-1.492-.02h-.37c-.034.042-.055.13-.055.173 0 .055.02.176.054.22.13.042.644.032.797.118.152.132.293.187.392.71.022.23.033.86.033 1.363v2.246c0 .456-.012 1.122-.023 1.394-.02.426-.173.937-.238 1.037-.1.077-.548.142-.983.163-.032.066-.055.176-.055.24 0 .065.022.143.055.198h.36c.35 0 1.635-.033 1.93-.033.272 0 .796.022 1.428.022.35 0 1.374.065 3.576.065.09 0 .186.01.296-.023.032-.055.032-.076.044-.174.022-.22.022-.86.022-1.745m-9.223.382c-.034-.098-.122-.262-.372-.262-.022 0-.055.012-.076.012-.655.927-1.375 1.275-2.192 1.275-1.134 0-1.94-.764-2.2-1.44-.145-.36-.34-1.144-.34-1.984 0-.795.12-1.44.327-1.908.48-1.264 1.178-1.656 2.028-1.656.71 0 1.297.404 1.744.98.185.252.38.742.554 1.32.045.01.143.032.24.032.065 0 .22-.053.262-.098-.01-.12-.12-.96-.12-1.22 0-.327.088-.862.088-1.07-.065-.065-.283-.108-.425-.118-.165.12-.22.26-.372.447-.61-.437-1.178-.775-2.42-.775-1.145 0-2.05.392-2.736 1.08-.753.74-1.167 1.766-1.167 3.074 0 1.395.59 2.54 1.537 3.26.6.435 1.483.73 2.54.73 1.33 0 2.3-.502 2.79-1.166.196-.263.218-.328.307-.513M61.75 5.56c0-.043-.012-.12-.033-.152h-.253c-.545 0-.893.02-1.875.02-.338 0-.84-.02-.96-.02h-.282c-.033.02-.045.142-.045.185 0 .055.012.14.057.186.174.054.838.128 1.123.315.195.23.28.686.314 1.112.01.162.022.326.022.773v2.28c0 .26-.012.347-.023.468-.185-.207-.448-.6-.884-1.09L55.28 5.603c-.034-.043-.1-.098-.165-.14-.087 0-.24-.012-.326-.012-.7 0-1.964-.03-2.15-.03-.02.042-.042.107-.042.15 0 .023.02.176.03.21.165.042.525.097.82.413.175.195.48.47.577.687.034.077.044.196.044.348 0 .566-.033 1.363-.033 2.125v2.215c0 .36-.033.642-.066.828-.228.24-.576.414-1.144.555-.02.057-.043.143-.043.198 0 .033.01.143.032.152h.208c.217 0 .72-.033 1.046-.033.48 0 .805.033 1.252.033h.65c.043-.01.055-.142.055-.185 0-.043-.012-.13-.032-.174-.38-.097-.934-.185-1.305-.675-.075-.164-.14-.97-.14-1.353 0-.348-.013-.826-.013-1.47 0-.862.012-1.614.023-1.995.065.076.14.174.196.238l5.033 5.66c.054.053.25.065.304.065s.088 0 .13-.022c.022-.054.1-.23.1-.49 0-.316-.013-.645-.013-.807V7.544c0-1.363.646-1.744 1.397-1.777.033-.055.045-.152.045-.206m-10.78 7.554c0-.055-.01-.174-.032-.217-.164-.012-.61-.055-.806-.098-.175-.21-.296-.448-.37-.84-.012-.524-.024-1.604-.024-2.618v-2.68c0-.295.12-.524.198-.59.207-.195.62-.238.97-.283.022-.044.032-.163.032-.208 0-.065-.032-.153-.054-.174h-.317c-.46 0-1.527.054-1.898.054-.23 0-1.297-.033-1.776-.043h-.24c-.033.042-.054.085-.054.183 0 .045.01.154.02.207.536.045.775.098.852.154.13.098.315.338.36.926.01.207.02.654.03 1.658.013.545.024 1.307.024 1.94 0 .316-.023 1.025-.033 1.406-.02.262-.077.512-.152.654-.13.11-.263.305-1.058.36-.022.043-.034.185-.034.23 0 .086.024.13.024.184h.185c.436 0 1.526-.055 2.092-.055.164 0 1.297.033 1.657.033h.36c.03-.054.043-.142.043-.186m-8.743-5.69c0 .676-.458 1.45-.992 1.58-.218.055-.492.088-.894.088-.11 0-.274 0-.405-.023l-.01-.927V6.138c0-.13.03-.207.064-.24.032-.033.23-.064.46-.064.85 0 1.22.074 1.525.587.172.295.25.634.25 1.004m3.16 5.702c0-.055-.02-.186-.054-.23-.108 0-.555-.02-.72-.142-.053-.064-.14-.195-.184-.273-.143-.5-.305-.837-.47-1.25-.23-.546-.544-1.06-.806-1.3-.098-.086-.436-.228-.818-.36-.174-.064-.315-.118-.446-.173.163-.033.24-.045.446-.064.808-.1.992-.24 1.2-.405.436-.328.675-.828.675-1.418 0-.883-.566-1.732-1.362-1.984-.262-.076-.73-.12-1.307-.12-.818 0-1.963.077-2.508.077-.164 0-1.113-.022-1.494-.022-.163 0-.577-.02-.642-.02-.033.076-.054.162-.054.207 0 .043.01.152.02.195.187.022.525.065.7.098.26.197.348.35.457.59.056.35.066 1.242.066 2.78 0 1.112.012 2.398-.043 2.814-.032.27-.13.597-.447.728-.14.024-.404.066-.62.076-.035.055-.056.164-.056.22 0 .032.02.118.043.173.154 0 1.822-.03 2.17-.03.697 0 1.287.03 1.908.03.023-.042.044-.118.044-.163 0-.074-.02-.184-.043-.23-.218-.02-.49-.085-.61-.108-.272-.13-.47-.392-.47-.775l-.01-2.517c.087-.012.197-.012.284-.012.14 0 .305.024.578.174.403.23.6.395.862.797.35.545.578 1.547.686 2.344.033.23.12.426.328.448.086.012.665.033 1.08.033h1.558c.043-.043.065-.13.065-.184M33.553 7.478c0 .557-.197 1.047-.556 1.363-.23.187-.59.296-1.135.296-.227 0-.403-.01-.467-.02-.087-.013-.143-.023-.143-.08l.012-3.193c.13-.01.316-.054.633-.054.74 0 1.2.184 1.417.643.15.293.24.664.24 1.045m1.95.044c0-.818-.47-1.582-1.166-1.896-.36-.155-.992-.252-1.95-.252-.84 0-2.15.066-2.726.066-.404 0-1.014-.045-1.352-.045-.034.055-.056.13-.056.174 0 .044 0 .163.033.218.207.066.545.12.764.175.183.163.227.305.293.622.032.38.055.86.055 1.69 0 2.3-.01 3.51-.044 3.77-.043.33-.26.666-.622.774-.164.032-.404.087-.63.108-.012.055-.024.13-.024.23 0 .087.012.098.032.153.35 0 1.374-.044 1.767-.044.97 0 1.963.045 2.365.045h.274c.033-.044.033-.12.033-.173 0-.066 0-.154-.024-.197-.327-.043-.817-.11-1.024-.35-.11-.13-.22-.316-.22-.642l-.032-2.4c.654.044 1.353.066 1.734.066.5 0 .926-.086 1.264-.196.775-.292 1.254-1.058 1.254-1.896M109.137 17.722c0-.067-.043-.09-.065-.132-.447 0-1.035.033-1.265.033-.556 0-1.23-.045-1.526-.045-.032.066-.043.076-.043.13 0 .057.01.1.022.132.315.064.772.143.86.295.076.14.1.25.1.424 0 .13-.012.26-.067.403-.098.27-.305.697-.6 1.297-.5 1.014-.817 1.646-.992 1.896-.282-.48-.914-1.742-1.066-2.07l-.61-1.33c-.022-.043-.044-.197-.044-.295 0-.14.02-.238.043-.282.1-.195.437-.217.895-.273.02-.053.032-.12.032-.162 0-.076-.032-.055-.065-.11h-.195c-.73 0-.514.034-1.768.034-.533 0-1.177-.033-1.264-.033-.044.076-.066.09-.066.164 0 .043.012.076.045.13.73.175.947.306 1.024.448l1.91 3.738c.184.35.293.62.348.818.076.305.088.752.088 1.307 0 .47-.164.72-.35.84-.076.044-.622.12-.872.143-.044.075-.056.097-.056.15s.022.09.033.132c.558 0 1.137-.012 1.462-.012.23 0 .578.012 1.222.023.37.01.653.02.85.02.022-.044.056-.087.056-.142 0-.053-.012-.086-.045-.14-.35-.044-.838-.11-.947-.22-.176-.186-.262-.27-.284-.697l-.087-1.637c-.012-.12.033-.23.044-.26.034-.12.076-.22.12-.307l1.68-3.324c.15-.284.48-.6.697-.73.153-.1.49-.165.71-.22.02-.053.04-.095.04-.138m-8.808 2.245v-2.115c0-.164-.067-.207-.23-.207-.327 0-1.832.043-3.576.043-1.352 0-2.257-.02-2.868-.02h-.806c-.142 0-.187.03-.187.185v1.973c.045.033.078.043.13.043.046 0 .09 0 .133-.022.425-.95.643-1.45 1.374-1.82.326-.034 1.47-.044 1.646-.044.01.12.022.5.033.96.01.784.01 1.208.01 3.063 0 1.602-.01 2.43-.033 2.604-.043.308.012.536-1.297.59-.033.077-.033.1-.033.187 0 .043 0 .087.012.13h.424c.403 0 .937-.043 1.33-.043.315 0 .916.032 1.58.032h.306c.033-.055.033-.11.033-.162 0-.066-.01-.1-.044-.154-.12 0-.818.023-1.124-.207-.033-.12-.098-.436-.098-.816-.01-1.178-.022-1.733-.022-2.52 0-1.014.012-1.787.012-3.673.152 0 .96-.01 1.287 0 .674.185.937.435 1.23.827.262.35.328.667.49 1.19.066.02.1.02.164.02.04 0 .097-.022.12-.043m-9.06 5.385c0-.055-.013-.11-.034-.152-.162-.012-.61-.055-.807-.098-.174-.207-.295-.447-.37-.84-.012-.523-.023-1.71-.023-2.727v-2.768c0-.295.12-.525.196-.59.207-.195.622-.24.97-.283.022-.043.033-.098.033-.14 0-.067-.033-.11-.054-.132h-.315c-.46 0-1.113.053-1.484.053-.23 0-.883-.03-1.362-.043h-.24c-.03.043-.053.043-.053.14 0 .046.01.09.02.144.536.045.775.1.852.152.13.1.314.338.36.928.01.207.02.764.03 1.766.012.545.022 1.287.022 1.92 0 .316-.022 1.133-.033 1.514-.022.262-.077.514-.152.654-.132.11-.263.305-1.06.36-.02.044-.03.12-.03.163 0 .088.02.088.02.143h.187c.438 0 1.112-.055 1.68-.055.163 0 .883.032 1.243.032h.358c.03-.053.043-.097.043-.14m-5.388-2.005c0-.874-.39-1.472-1.23-1.92-.23-.13-.633-.272-1.21-.437-.666-.185-1.222-.402-1.582-.6-.24-.13-.644-.49-.644-1.188s.71-1.275 1.537-1.275c.654 0 1.18.326 1.494.762.273.382.37.556.676 1.243.033.01.076.02.11.02.098 0 .185-.054.24-.107-.034-.274-.088-.655-.088-.98 0-.284.065-.655.1-.852-.09-.132-.188-.153-.33-.153-.15.1-.294.25-.425.394-.72-.578-1.308-.676-1.853-.676-1.34 0-2.3.895-2.3 2.082 0 .404.14.797.402 1.2.24.337.59.6 1.058.796.315.13 1.732.557 1.93.633.87.337 1.2.63 1.2 1.403 0 .383-.165.72-.48 1.102-.284.35-.73.514-1.21.514-.514 0-1.397-.22-1.833-.808-.262-.338-.632-1.047-.74-1.473-.077-.022-.077-.022-.153-.022-.065 0-.143.02-.207.064 0 .143.044.86.044 1.08 0 .533-.1.795-.12.97.03.11.217.22.35.22.227-.197.466-.35.544-.35.064 0 .162.03.26.098.71.46 1.3.545 1.822.545 1.536 0 2.636-.774 2.636-2.288m-9.648-3.763c0 .697-.556 1.482-1.198 1.625-.263.055-.645.087-1.135.087-.13 0-.5 0-.664-.023l-.01-.96v-2.06c0-.143.032-.22.075-.25.045-.032.49-.066.764-.066 1.024 0 1.494.098 1.865.633.207.295.304.633.304 1.014m2.29 5.777c0-.052-.022-.118-.055-.16-.11 0-.558-.022-.722-.144-.054-.064-.14-.195-.185-.27-.142-.503-.294-.95-.458-1.364-.23-.545-.545-1.06-.807-1.297-.098-.088-.403-.23-.785-.36-.174-.065-.316-.12-.447-.175.164-.03.24-.043.447-.064.71-.088.95-.24 1.157-.404.435-.326.718-.815.718-1.406 0-.883-.566-1.723-1.362-1.973-.262-.076-.73-.12-1.31-.12-.816 0-1.428.075-1.973.075-.162 0-.697-.02-1.078-.02-.164 0-.578-.022-.644-.022-.03.076-.054.1-.054.143s.01.106.022.15c.185.023.522.066.697.1.262.194.35.35.458.59.054.347.066 1.33.066 2.866 0 1.11.01 2.508-.047 2.922-.03.27-.13.598-.446.73-.142.022-.403.066-.62.077-.034.053-.057.098-.057.152 0 .033.022.076.045.13.152 0 1.406-.032 1.755-.032.698 0 .872.033 1.494.033.02-.044.044-.076.044-.12 0-.077-.022-.12-.044-.163-.218-.02-.49-.088-.61-.11-.273-.13-.47-.392-.47-.774l-.01-2.724c.087-.012.402-.012.49-.012.294 0 .59.023.87.154.416.184.81.48 1.07.883.35.546.578 1.58.688 2.376.03.23.12.426.326.448.087.01.22.032.633.032h1.134c.05-.045.07-.088.07-.145m-9.148-1.655c0-.152 0-.22-.01-.315-.055-.034-.076-.034-.164-.034-.076 0-.064 0-.142.023-.24.794-.653 1.385-1.123 1.667-.163.098-.458.12-.926.12h-1.22c-.38-.013-.62-.034-.72-.056-.163-.03-.338-.294-.413-.468-.078-.186-.12-.25-.12-.752v-2.486h.35c.348 0 .63.023.925.154.273.12.48.293.59.467.098.155.13.754.152.906.054.034.087.044.174.044s.098-.01.175-.055c0-.294-.064-1.09-.064-1.526 0-.545.074-1.21.106-1.604-.043-.02-.064-.043-.174-.043-.077 0-.108 0-.175.03-.032.155-.12.612-.14.646-.165.27-.548.49-.84.578-.198.056-.48.09-.896.09h-.173v-1.07c0-1.046.02-1.472.03-1.67.013-.13.034-.27.046-.368.098-.01.414-.02.916-.02.63 0 1.1.01 1.198.01.305.02.533.087.697.218.534.414.676.688.97 1.352.066.02.076.02.132.02.064 0 .076-.02.162-.063 0-.667-.044-1.42-.065-1.692-.012-.11-.033-.14-.25-.14-.088 0-.502-.022-.938-.022-.623 0-.873.01-1.822.01-.512 0-1.416.012-1.863.012-.654 0-.797-.02-1.08-.02h-.374c-.033.042-.056.085-.056.128 0 .057.022.11.056.154.132.044.647.033.8.12.152.13.294.163.393.687.022.23.034.97.034 1.473v2.244c0 .457-.012 1.21-.022 1.482-.022.426-.174.96-.24 1.06-.1.075-.546.14-.985.16-.033.068-.056.11-.056.177 0 .064.023.098.057.152h.362c.35 0 1.223-.033 1.516-.033.273 0 .644.022 1.276.022.35 0 1.373.065 3.576.065.087 0 .185.01.294-.022.033-.055.033-.076.044-.174.02-.22.02-.756.02-1.64m-8.07-5.95c0-.045-.013-.11-.056-.12h-.37c-.263 0-.677.02-.862.02-.883 0-1.2-.055-1.33-.055h-.195c-.023.054-.057.087-.057.142 0 .043.023.076.023.12.27.032.51.087.75.163.132.13.274.393.274.688 0 .107-.11.62-.264.992l-1.754 4.316-2.154-5.462c.032-.26.174-.512.357-.61.185-.02.41-.087.706-.087.02-.042.043-.106.043-.15s-.01-.11-.056-.12h-.273c-.333 0-.845.043-1.422.043-.25 0-.74-.02-1.22-.02h-.426c-.022.042-.043.063-.043.13 0 .064.01.088.03.13.306.077.6.196.917.37.207.307.655 1.408.895 1.984l.902 2.182c.75 1.81 1.197 3.02 1.252 3.226.055.033 0 .064.098.064s.088-.02.11-.074l2.81-6.76c.1-.24.25-.47.394-.623.174-.195.533-.27.87-.348.013-.043.047-.088.047-.14m-9.548 7.597c0-.055-.01-.11-.032-.152-.164-.012-.61-.055-.807-.098-.174-.207-.293-.447-.37-.84-.01-.523-.022-1.71-.022-2.727v-2.768c0-.295.12-.525.196-.59.207-.195.62-.24.97-.283.022-.043.033-.098.033-.14 0-.067-.033-.11-.055-.132h-.316c-.458 0-1.112.053-1.483.053-.227 0-.882-.03-1.36-.043h-.24c-.034.043-.056.043-.056.14 0 .046.01.09.022.144.534.045.774.1.85.152.13.1.317.338.36.928.01.207.022.764.033 1.766.01.545.022 1.287.022 1.92 0 .316-.023 1.133-.034 1.514-.02.262-.076.514-.153.654-.13.11-.26.305-1.057.36-.022.044-.033.12-.033.163 0 .088.023.088.023.143h.184c.437 0 1.113-.055 1.68-.055.163 0 .882.032 1.242.032h.36c.035-.053.043-.097.043-.14M46.83 17.73c0-.043-.01-.076-.032-.107h-.25c-.545 0-.786.02-1.766.02-.34 0-.84-.02-.96-.02h-.284c-.032.02-.043.1-.043.142 0 .054.01.075.054.118.174.055.84.132 1.122.316.196.23.284.687.317 1.112.01.162.02.327.02.773v3.238c0 .262-.01.35-.02.47-.187-.208-.503-.612-.928-1.113l-4.165-4.862c-.033-.045-.098-.097-.164-.143-.087 0-.195-.01-.283-.01-.697 0-1.308-.033-1.494-.033-.02.043-.032.064-.032.11 0 .02.01.108.02.14.165.045.645.1.842.307.174.194.435.423.533.642.032.076.044.195.044.35 0 .566-.033 1.602-.033 2.365v2.322c0 .358-.032.642-.065.827-.23.24-.578.414-1.145.557-.022.055-.043.076-.043.13 0 .034.01.1.032.108h.206c.218 0 .72-.03 1.048-.03.478 0 .696.03 1.142.03h.657c.043-.01.052-.098.052-.14s-.01-.067-.032-.11c-.38-.098-.936-.186-1.307-.676-.077-.164-.143-.992-.143-1.373 0-.35-.01-.916-.01-1.56 0-.86.01-2.05.022-2.43l.24.282 5.167 6.05c.054.056.076.065.132.065.053 0 .02 0 .064-.02.022-.056.055-.23.055-.49 0-.317-.01-.644-.01-.808V19.65c0-1.363.643-1.746 1.395-1.777.03-.055.043-.088.043-.143m-10.096.055c0-.043-.02-.11-.054-.14h-.315c-.34 0-.797.02-1.19.02-.435 0-.925-.02-1.243-.02h-.39c-.035.063-.046.085-.046.14 0 .045.01.088.033.143.044 0 .84.01.98.207.12.164.382.566.425.807.022.11.088.557.088 1.2 0 .925 0 1.546-.01 1.874-.023.61-.09 1.09-.198 1.45-.305.948-1.013 1.417-2.136 1.417-.48 0-.895-.098-1.277-.273-.71-.348-1.047-1.013-1.057-1.373l-.055-3.27-.01-1.33c0-.252.316-.48.425-.61.088-.044.567-.09.84-.11.033-.064.054-.098.054-.15 0-.057-.033-.11-.077-.143l-.414.01c-.405.012-.938.02-1.276.02-.524 0-.928-.01-1.254-.01h-.457c-.045.032-.056.1-.056.153s.01.098.044.13c.35.045.578.077.73.108.186.11.318.295.383.48.01.143.032.49.032 1.178v2.617c0 .676.034 1.154.11 1.46.14.567.446 1.015.948 1.34.534.35 1.2.524 1.995.524.73 0 1.352-.152 1.875-.447.545-.293.883-.773 1.08-1.45.108-.4.174-.84.174-1.296V20.35c0-.394.022-.884.022-1.08.01-.588.163-.94.327-1.2.174-.054.326-.086.904-.152.023-.043.044-.076.044-.13"/><path fill="none" d="M-17-10.875h144v54H-17z"/></svg>