<svg xmlns="http://www.w3.org/2000/svg" width="32" height="32" viewBox="0 0 32 32"><path fill="#55ACEE" d="M26.667 0H5.334C2.4 0 0 2.4 0 5.334v21.332C0 29.602 2.4 32 5.334 32h21.333C29.602 32 32 29.602 32 26.666V5.334C32 2.4 29.602 0 26.667 0zm-2.715 11.92c.008.177.012.354.012.532 0 5.422-4.127 11.675-11.675 11.675-2.318 0-4.475-.68-6.29-1.844.32.038.647.058.978.058 1.922 0 3.692-.654 5.096-1.756-1.796-.033-3.312-1.22-3.833-2.85.252.05.51.074.772.074.374 0 .737-.05 1.08-.144-1.876-.377-3.29-2.035-3.29-4.023v-.05c.553.306 1.187.49 1.858.512-1.1-.736-1.825-1.992-1.825-3.415 0-.752.202-1.457.556-2.063 2.025 2.482 5.048 4.116 8.458 4.287-.07-.3-.106-.613-.106-.934 0-2.266 1.837-4.103 4.103-4.103 1.18 0 2.247.498 2.995 1.296.935-.185 1.813-.526 2.606-.997-.307.958-.957 1.762-1.805 2.27.83-.1 1.622-.32 2.358-.645-.548.823-1.243 1.545-2.046 2.123z"/></svg>